<?xml version="1.0" encoding="UTF-8"?><svg id="Layer_10" xmlns="http://www.w3.org/2000/svg" viewBox="0 0 1371.35 924.83"><defs><style>.cls-1{stroke-width:0px;}</style></defs><path class="cls-1" d="m234.23,600.02c-35.73,0-65.29-7.06-83.81-11.47v-291.14h-33.97v-22.06l76.75-5.73-3.53,143.36c22.94-15.44,45.88-25.58,75.87-25.58,43.67,0,81.17,34.85,81.17,100.58,0,37.94-17.2,67.49-37.49,86.02-19.85,17.64-45.88,26.03-74.99,26.03Zm-7.06-17.2c50.29,0,76.75-29.55,76.75-85.14s-34.41-85.58-73.67-85.58c-11.47,0-29.11,9.7-39.26,15v148.21c8.38,3.97,19.85,7.5,36.17,7.5Z"/><path class="cls-1" d="m557.57,600.47l-7.5-30c-26.47,18.53-50.73,29.11-80.28,29.11-42.79,0-81.17-32.2-81.17-100.13,0-35.73,16.32-67.05,36.17-86.02,19.41-18.97,40.58-26.03,66.61-26.03,18.09,0,38.82,3.97,54.26,9.71l-1.32-99.69h-41.46v-22.06l84.69-5.73-2.65,122.63v182.18h32.64v16.76l-59.99,9.26Zm-52.49-25.58c9.7,0,29.55-9.26,39.26-15v-149.54c-8.38-2.21-21.61-3.53-34.41-3.53-49.4,0-78.52,27.35-78.52,81.61s34.85,86.46,73.67,86.46Z"/><path class="cls-1" d="m877.79,600.02c-35.73,0-65.29-7.06-83.81-11.47v-291.14h-33.97v-22.06l76.75-5.73-3.53,143.36c22.94-15.44,45.88-25.58,75.87-25.58,43.67,0,81.17,34.85,81.17,100.58,0,37.94-17.2,67.49-37.5,86.02-19.85,17.64-45.88,26.03-74.99,26.03Zm-7.06-17.2c50.29,0,76.75-29.55,76.75-85.14s-34.41-85.58-73.67-85.58c-11.47,0-29.11,9.7-39.26,15v148.21c8.38,3.97,19.85,7.5,36.17,7.5Z"/><path class="cls-1" d="m1072.35,574c-20.29-18.53-37.5-48.08-37.5-86.02,0-65.73,37.5-100.58,81.17-100.58,30,0,52.93,10.15,75.87,25.58l-3.53-143.36,76.75,5.73v22.06h-33.97s0,291.14,0,291.14c-18.53,4.41-48.08,11.47-83.81,11.47-29.11,0-55.14-8.38-74.99-26.03Zm118.22,1.32v-148.21c-10.15-5.29-27.79-15-39.26-15-39.26,0-73.67,31.32-73.67,85.58,0,55.58,26.47,85.14,76.75,85.14,16.32,0,27.79-3.53,36.17-7.5Z"/></svg>