<?xml version="1.0" encoding="UTF-8"?><svg id="Layer_10" xmlns="http://www.w3.org/2000/svg" viewBox="0 0 1371.35 924.83"><defs><style>.cls-1{stroke-width:0px;}</style></defs><path class="cls-1" d="m199.43,589.1c-12.7-7.87-22.18-17.84-28.45-29.89-6.27-12.05-9.24-24.35-8.92-36.88h6.75v74.73h-43.39v-327.86h43.88v175.5h-7.71c-.32-14.78,2.81-29.25,9.4-43.39,6.58-14.14,16.63-25.63,30.13-34.47,13.5-8.84,29.57-13.26,48.22-13.26,31.82,0,55.36,9.97,70.63,29.89,15.26,19.93,22.9,50.31,22.9,91.13,0,28.29-4.42,51.76-13.26,70.39-8.84,18.65-20.73,32.63-35.68,41.95-14.95,9.33-31.42,13.98-49.42,13.98s-32.39-3.93-45.08-11.81Zm67.02-32.79c9.8-6.91,17.43-17.27,22.9-31.1,5.46-13.82,8.2-30.38,8.2-49.66,0-26.35-5.06-47.01-15.19-61.96-10.13-14.95-26.76-22.42-49.9-22.42s-38.98,7.4-49.42,22.18c-10.45,14.79-15.67,35.68-15.67,62.68,0,18.97,2.65,35.36,7.96,49.18,5.3,13.82,12.94,24.19,22.9,31.1,9.96,6.92,21.37,10.37,34.23,10.37s24.18-3.45,33.99-10.37Z"/><path class="cls-1" d="m431.1,586.2c-15.11-9.8-27.08-24.18-35.92-43.15-8.84-18.96-13.26-41.62-13.26-67.98s3.53-47.17,10.61-65.33c7.07-18.16,18-32.06,32.79-41.71,14.78-9.64,33.27-14.46,55.45-14.46,20.25,0,36.4,4.18,48.46,12.54,12.05,8.36,20.81,19.29,26.28,32.79,5.46,13.5,9,28.93,10.61,46.29h-9.64v-175.99h44.36v327.86h-43.88v-74.73h5.79c-.65,12.22-3.86,24.27-9.64,36.16-5.79,11.9-14.79,21.94-27,30.13-12.22,8.2-27,12.29-44.36,12.29-18.65,0-35.52-4.9-50.63-14.71Zm95.47-29.89c9.64-6.91,17.03-17.03,22.18-30.38,5.14-13.33,7.71-30.13,7.71-50.39,0-26.35-4.91-47.08-14.71-62.2-9.81-15.1-26.28-22.66-49.42-22.66s-38.98,7.64-49.42,22.9c-10.45,15.27-15.67,35.92-15.67,61.96,0,19.29,2.73,35.85,8.2,49.66,5.46,13.82,13.09,24.19,22.9,31.1,9.8,6.92,21.29,10.37,34.47,10.37s24.11-3.45,33.75-10.37Z"/><path class="cls-1" d="m840.01,589.1c-12.7-7.87-22.18-17.84-28.45-29.89-6.27-12.05-9.24-24.35-8.92-36.88h6.75v74.73h-43.39v-327.86h43.88v175.5h-7.71c-.32-14.78,2.81-29.25,9.4-43.39,6.58-14.14,16.63-25.63,30.13-34.47,13.5-8.84,29.57-13.26,48.22-13.26,31.82,0,55.36,9.97,70.63,29.89,15.26,19.93,22.9,50.31,22.9,91.13,0,28.29-4.42,51.76-13.26,70.39-8.84,18.65-20.73,32.63-35.68,41.95-14.95,9.33-31.42,13.98-49.42,13.98s-32.39-3.93-45.08-11.81Zm67.02-32.79c9.8-6.91,17.43-17.27,22.9-31.1,5.46-13.82,8.2-30.38,8.2-49.66,0-26.35-5.06-47.01-15.19-61.96-10.13-14.95-26.76-22.42-49.9-22.42s-38.98,7.4-49.42,22.18c-10.45,14.79-15.67,35.68-15.67,62.68,0,18.97,2.65,35.36,7.96,49.18,5.3,13.82,12.94,24.19,22.9,31.1,9.96,6.92,21.37,10.37,34.23,10.37s24.18-3.45,33.99-10.37Z"/><path class="cls-1" d="m1113.34,600.91c-18,0-34.47-4.66-49.42-13.98-14.95-9.32-26.83-23.3-35.68-41.95-8.84-18.64-13.26-42.11-13.26-70.39,0-40.82,7.64-71.19,22.9-91.13,15.27-19.93,38.81-29.89,70.63-29.89,18.65,0,34.72,4.42,48.22,13.26,13.5,8.84,23.55,20.33,30.13,34.47,6.59,14.15,9.73,28.61,9.4,43.39h-7.71v-175.5h43.88v327.86h-43.39v-74.73h6.75c.32,12.54-2.65,24.83-8.92,36.88-6.27,12.05-15.75,22.02-28.45,29.89-12.69,7.88-27.72,11.81-45.08,11.81Zm12.05-34.23c12.86,0,24.27-3.45,34.23-10.37,9.97-6.91,17.6-17.27,22.9-31.1,5.3-13.82,7.96-30.21,7.96-49.18,0-27-5.22-47.89-15.67-62.68-10.44-14.78-26.92-22.18-49.42-22.18s-39.78,7.47-49.9,22.42c-10.13,14.95-15.19,35.6-15.19,61.96,0,19.29,2.73,35.85,8.2,49.66,5.47,13.82,13.1,24.19,22.9,31.1,9.81,6.92,21.14,10.37,33.99,10.37Z"/></svg>