<?xml version="1.0" encoding="UTF-8"?><svg id="Layer_6" xmlns="http://www.w3.org/2000/svg" viewBox="0 0 1034.75 466.09"><defs><style>.cls-1,.cls-2{stroke-width:0px;}.cls-2{fill:#969696;}</style></defs><rect class="cls-1" x="392.21" y="314.18" width="217.5" height="60.48"/><path class="cls-2" d="m132.75,363.54c-25.75-10.01-46.24-25.1-61.45-45.26-15.22-20.15-22.83-44.67-22.83-73.55,0-32.77,6.57-59.43,19.7-79.99,13.13-20.55,32.25-35.57,57.36-45.07,25.1-9.49,55.99-14.24,92.67-14.24,13.78,0,27.9.91,42.33,2.73,14.44,1.82,27.12,4.23,38.04,7.22,10.92,2.99,18.34,5.92,22.24,8.78v78.03c-3.9-2.34-11.25-4.81-22.04-7.41-10.8-2.6-22.83-4.81-36.09-6.63-13.27-1.82-25.23-2.73-35.9-2.73-26.28,0-45.65,4.88-58.14,14.63-12.49,9.75-18.73,24.65-18.73,44.68,0,13.27,2.73,24.71,8.19,34.34,5.46,9.63,14.44,17.23,26.92,22.83,12.49,5.6,28.87,8.39,49.16,8.39,15.35,0,31.54-1.62,48.58-4.88,17.03-3.25,29.71-6.83,38.04-10.73v69.06c-5.99,3.65-19.64,7.02-40.97,10.14-21.33,3.12-41.88,4.68-61.65,4.68-31.21,0-59.7-5-85.45-15.02Z"/><path class="cls-2" d="m439.81,109.34h127.98l107.3,265.32h-93.64l-92.47-229.03h25.75l-92.47,229.03h-89.74l107.3-265.32Zm-47.6,162.7h209.91v62.43h-209.91v-62.43Z"/><path class="cls-2" d="m696.54,109.34h176.75c28.61,0,51.17,2.93,67.7,8.78,16.52,5.85,28.15,13.79,34.92,23.8,6.76,10.02,10.14,21.92,10.14,35.7,0,12.23-3.77,22.83-11.32,31.8-7.55,8.97-18.79,15.94-33.75,20.87-14.96,4.94-33.23,7.41-54.82,7.41v-7.41c31.73,0,56.96,4.75,75.69,14.24,18.73,9.5,28.09,26.34,28.09,50.53s-10.02,44.81-30.04,58.72c-20.03,13.92-48.91,20.87-86.62,20.87h-176.75V109.34Zm187.09,108.08c5.59-1.3,9.76-3.44,12.49-6.44,2.73-2.99,4.1-7.08,4.1-12.29,0-4.16-1.37-7.67-4.1-10.54-2.73-2.86-6.96-5-12.68-6.44-5.72-1.43-13.01-2.15-21.85-2.15h-79.21v39.8h79.21c9.1,0,16.45-.65,22.04-1.95Zm7.22,94.42c6.76-1.56,11.38-3.9,13.85-7.02,2.47-3.12,3.71-7.41,3.71-12.88,0-6.24-3.45-10.73-10.34-13.46-6.9-2.73-19.06-4.1-36.48-4.1h-79.21v39.8h79.21c12.74,0,22.5-.78,29.26-2.34Z"/><path class="cls-1" d="m883.63,217.42c5.59-1.3,9.76-3.44,12.49-6.44,2.73-2.99,4.1-7.08,4.1-12.29,0-4.16-1.37-7.67-4.1-10.54-2.73-2.86-6.96-5-12.68-6.44-5.72-1.43-13.01-2.15-21.85-2.15h-79.21v39.8h79.21c9.1,0,16.45-.65,22.04-1.95Z"/><path class="cls-1" d="m898.06,278.48c-6.9-2.73-19.06-4.1-36.48-4.1h-79.21v39.8h79.21c12.74,0,22.5-.78,29.26-2.34,6.76-1.56,11.38-3.9,13.85-7.02,2.47-3.12,3.71-7.41,3.71-12.88,0-6.24-3.45-10.73-10.34-13.46Z"/><polygon class="cls-1" points="463.68 272.04 540.01 272.04 501.85 177.52 463.68 272.04"/><path class="cls-1" d="m185.03,301.89c12.49,5.6,28.87,8.39,49.16,8.39,15.35,0,31.54-1.62,48.58-4.88,17.03-3.25,29.71-6.83,38.04-10.73v-92.47c-3.9-2.34-11.25-4.81-22.04-7.41-10.8-2.6-22.83-4.81-36.09-6.63-13.27-1.82-25.23-2.73-35.9-2.73-26.28,0-45.65,4.88-58.14,14.63-12.49,9.75-18.73,24.65-18.73,44.68,0,13.27,2.73,24.71,8.19,34.34,5.46,9.63,14.44,17.23,26.92,22.83Z"/></svg>