<?xml version="1.0" encoding="UTF-8"?><svg id="Layer_6" xmlns="http://www.w3.org/2000/svg" viewBox="0 0 1034.75 466.09"><defs><style>.cls-1{stroke-width:0px;}</style></defs><polygon class="cls-1" points="567.79 109.34 696.54 109.34 696.54 374.66 675.08 374.66 567.79 109.34"/><polygon class="cls-1" points="320.81 109.36 320.81 202.2 320.81 374.66 332.51 374.66 439.81 109.34 320.81 109.36"/><path class="cls-1" d="m269.08,109.36c10.94,1.64,20.78,3.65,29.49,6.03,10.92,2.99,18.34,5.92,22.24,8.78v78.03c-3.9-2.34-11.25-4.81-22.04-7.41-10.8-2.6-22.83-4.81-36.09-6.63-13.27-1.82-25.23-2.73-35.9-2.73-26.28,0-45.65,4.88-58.14,14.63-12.49,9.75-18.73,24.65-18.73,44.68,0,13.27,2.73,24.71,8.19,34.34,5.46,9.63,14.44,17.23,26.92,22.83,12.49,5.6,28.87,8.39,49.16,8.39,15.35,0,31.54-1.62,48.58-4.88,17.03-3.25,29.71-6.83,38.04-10.73v69.06c-5.99,3.65-19.64,7.02-40.97,10.14-1.9.28-3.78.53-5.66.78h58.33l107.29-265.3h-170.72Z"/><path class="cls-1" d="m876.03,109.36c27.31.18,48.97,3.1,64.95,8.76,16.52,5.85,28.15,13.79,34.92,23.8,6.76,10.02,10.14,21.92,10.14,35.7,0,12.23-3.77,22.83-11.32,31.8-7.55,8.97-18.79,15.94-33.75,20.87-4.02,1.33-8.28,2.47-12.78,3.44,12.9,2.37,24.12,5.97,33.65,10.8,18.73,9.5,28.09,26.34,28.09,50.53s-10.02,44.81-30.04,58.72c-20.03,13.92-48.91,20.87-86.62,20.87h138.92V109.36h-136.18Z"/><path class="cls-1" d="m132.75,363.54c-25.75-10.01-46.24-25.1-61.45-45.26-15.22-20.15-22.83-44.67-22.83-73.55,0-32.77,6.57-59.43,19.7-79.99,13.13-20.55,32.25-35.57,57.36-45.07,11.95-4.52,25.24-7.95,39.82-10.32H19.76v265.3h152.88c-13.95-2.5-27.26-6.2-39.89-11.12Z"/></svg>