<?xml version="1.0" encoding="UTF-8"?><svg id="Layer_10" xmlns="http://www.w3.org/2000/svg" viewBox="0 0 1371.35 924.83"><defs><style>.cls-1{fill:none;stroke:#969696;stroke-miterlimit:10;stroke-width:2px;}.cls-2,.cls-3{stroke-width:0px;}.cls-3{fill:#969696;}</style></defs><rect class="cls-2" x="533.21" y="407.4" width="304.93" height="74.62"/><rect class="cls-2" x="465.96" y="133.8" width="82.91" height="626.44"/><rect class="cls-2" x="822.48" y="133.8" width="82.91" height="626.44"/><line class="cls-1" x1="566.57" y1="140.94" x2="566.57" y2="400.26"/><path class="cls-3" d="m559.05,141.32c0-4.15,3.37-7.52,7.52-7.52s7.52,3.37,7.52,7.52-3.37,7.52-7.52,7.52-7.52-3.37-7.52-7.52Z"/><path class="cls-3" d="m559.05,399.88c0,4.15,3.37,7.52,7.52,7.52s7.52-3.37,7.52-7.52-3.37-7.52-7.52-7.52-7.52,3.37-7.52,7.52Z"/><line class="cls-1" x1="566.57" y1="489.17" x2="566.57" y2="753.09"/><path class="cls-3" d="m559.05,489.54c0-4.15,3.37-7.52,7.52-7.52s7.52,3.37,7.52,7.52-3.37,7.52-7.52,7.52-7.52-3.37-7.52-7.52Z"/><path class="cls-3" d="m559.05,752.71c0,4.15,3.37,7.52,7.52,7.52s7.52-3.37,7.52-7.52-3.37-7.52-7.52-7.52-7.52,3.37-7.52,7.52Z"/><path class="cls-2" d="m575.74,266.55l2.37-1.74c1.36-1.08,2.44-2.05,3.24-2.91.8-.86,1.36-1.65,1.68-2.37.32-.72.48-1.45.48-2.19,0-.96-.27-1.67-.81-2.13-.54-.46-1.37-.69-2.49-.69-.56,0-1.12.08-1.69.24-.57.16-1.1.38-1.59.65-.49.27-.88.56-1.16.88v-4.68c.26-.28.71-.54,1.33-.79.63-.25,1.35-.46,2.17-.63.82-.17,1.61-.25,2.37-.25,1.64,0,3.03.27,4.17.81s1.99,1.27,2.55,2.21c.56.93.84,2.02.84,3.25,0,1.52-.56,3.1-1.68,4.75s-2.75,3.24-4.89,4.75l-4.98,3.48-.06-2.67h11.55v4.08h-13.41v-4.05Z"/><path class="cls-2" d="m596.68,268.21c1.26-1.17,2.33-2.43,3.2-3.77s1.23-2.5,1.09-3.48h.27c-.04.72-.21,1.35-.5,1.9-.29.55-.73,1-1.32,1.35-.59.35-1.33.52-2.24.52-1.02,0-1.99-.23-2.92-.69-.93-.46-1.69-1.2-2.28-2.23-.59-1.03-.89-2.36-.89-4s.3-3.05.92-4.23,1.48-2.07,2.61-2.67c1.13-.6,2.49-.9,4.09-.9,1.76,0,3.23.3,4.41.9,1.18.6,2.05,1.49,2.61,2.66.56,1.17.84,2.58.84,4.25,0,2.1-.41,4.04-1.21,5.83-.81,1.79-1.76,3.29-2.85,4.5s-2.04,2.02-2.86,2.44h-6.09c.82-.42,1.86-1.21,3.12-2.38Zm3.44-6.93c.35-.33.6-.78.76-1.35s.24-1.25.24-2.02c0-1.22-.18-2.14-.54-2.76-.36-.62-.97-.93-1.83-.93s-1.47.31-1.82.93c-.35.62-.52,1.54-.52,2.76,0,.8.08,1.48.24,2.04.16.56.41,1,.75,1.33.34.33.79.5,1.35.5s1.01-.17,1.37-.5Z"/><path class="cls-2" d="m612.06,269.85c-1.17-.62-2.09-1.56-2.77-2.82-.68-1.26-1.02-2.77-1.02-4.53,0-2.12.42-4.03,1.26-5.75.84-1.71,1.78-3.1,2.82-4.17,1.04-1.07,1.99-1.88,2.85-2.42h6.18c-1.46,1.1-2.78,2.25-3.96,3.44-1.18,1.19-2.13,2.41-2.87,3.65-.73,1.24-1.12,2.46-1.16,3.66l-.24-.03c.04-.64.25-1.31.64-2.02.39-.71.92-1.3,1.61-1.77.68-.47,1.43-.71,2.25-.71,1.74,0,3.19.51,4.35,1.53s1.74,2.7,1.74,5.04c0,1.64-.34,3.05-1.02,4.23-.68,1.18-1.6,2.08-2.77,2.69-1.17.61-2.47.92-3.88.92-1.5,0-2.84-.31-4.01-.93Zm5.37-2.91c.35-.3.6-.74.75-1.32.15-.58.23-1.31.23-2.19,0-1.26-.17-2.18-.5-2.76-.33-.58-.94-.87-1.82-.87s-1.47.3-1.83.9c-.36.6-.54,1.51-.54,2.73,0,.86.08,1.58.24,2.16s.41,1.02.75,1.33.8.46,1.38.46c.54,0,.99-.15,1.33-.45Z"/><path class="cls-2" d="m579.98,630.12c-.93-.27-1.67-.62-2.23-1.04v-3.84c.44.38,1.05.69,1.83.93.78.24,1.57.36,2.37.36,1.08,0,1.96-.24,2.65-.71.69-.47,1.04-1.19,1.04-2.15s-.38-1.65-1.14-2.07c-.76-.42-1.71-.63-2.85-.63-.42,0-.83.03-1.24.07-.41.05-.77.12-1.07.2v-2.61l5.4-4.26h-6.99v-4.44h13.11v4.5l-7.8,6.12-.66-1.14c.38-.1.8-.17,1.25-.22.45-.05.88-.08,1.28-.08,1.92,0,3.46.42,4.63,1.25s1.75,2.08,1.75,3.76c0,1.36-.38,2.53-1.14,3.5-.76.97-1.75,1.7-2.96,2.17-1.21.48-2.53.72-3.95.72-1.26,0-2.35-.14-3.29-.41Z"/><path class="cls-2" d="m597.24,629.42c-1.26-.74-2.25-1.88-2.97-3.42-.72-1.54-1.08-3.44-1.08-5.7,0-3.62.72-6.29,2.16-8.03,1.44-1.73,3.5-2.59,6.18-2.59s4.73.87,6.15,2.59c1.42,1.73,2.13,4.41,2.13,8.03,0,2.28-.36,4.19-1.08,5.73-.72,1.54-1.71,2.67-2.96,3.4-1.25.73-2.67,1.1-4.25,1.1s-3.03-.37-4.29-1.11Zm5.64-3.25c.38-.39.68-1.05.9-2,.22-.94.33-2.23.33-3.87s-.1-2.86-.29-3.72c-.19-.86-.48-1.45-.86-1.75-.38-.31-.86-.47-1.44-.47s-1.08.16-1.46.48c-.37.32-.66.91-.86,1.75-.2.85-.3,2.08-.3,3.71s.11,2.93.33,3.87c.22.94.52,1.6.9,2,.38.39.84.58,1.38.58s.97-.2,1.35-.58Z"/><path class="cls-2" d="m615.72,629.82c-1.2-.47-2.17-1.16-2.89-2.06-.73-.9-1.1-1.99-1.1-3.27s.32-2.3.96-3.13,1.68-1.44,3.12-1.82c-1.08-.1-1.96-.55-2.66-1.35-.69-.8-1.03-1.72-1.03-2.76,0-1.96.69-3.41,2.07-4.35,1.38-.94,3.17-1.41,5.37-1.41s4.02.46,5.42,1.4c1.39.93,2.08,2.38,2.08,4.36,0,1.02-.34,1.94-1.04,2.75-.69.81-1.55,1.27-2.59,1.37,1.42.38,2.45.98,3.08,1.8.63.82.94,1.87.94,3.15s-.37,2.37-1.09,3.27c-.73.9-1.69,1.59-2.89,2.06s-2.5.71-3.9.71-2.64-.24-3.84-.71Zm5.22-2.96c.34-.22.6-.54.78-.96s.27-.91.27-1.47c0-1.02-.19-1.75-.57-2.21-.38-.45-1-.67-1.86-.67s-1.42.23-1.81.69c-.39.46-.58,1.19-.58,2.19,0,.56.09,1.05.27,1.47s.45.74.81.96c.36.22.8.33,1.32.33.58,0,1.04-.11,1.38-.33Zm.38-8.55c.39-.48.58-1.14.58-1.98s-.18-1.43-.55-1.84-.96-.62-1.79-.62-1.38.21-1.74.62c-.36.41-.54,1.02-.54,1.84s.19,1.5.56,1.98c.37.48.94.72,1.72.72s1.37-.24,1.75-.72Z"/></svg>