<?xml version="1.0" encoding="UTF-8"?><svg id="Layer_10" xmlns="http://www.w3.org/2000/svg" viewBox="0 0 1371.35 924.83"><defs><style>.cls-1{fill:none;stroke:#969696;stroke-miterlimit:10;stroke-width:2px;}.cls-2,.cls-3{stroke-width:0px;}.cls-3{fill:#969696;}</style></defs><rect class="cls-2" x="533.21" y="407.4" width="304.93" height="74.62"/><rect class="cls-2" x="465.96" y="133.8" width="82.91" height="626.44"/><rect class="cls-2" x="822.48" y="133.8" width="82.91" height="626.44"/><line class="cls-1" x1="473.1" y1="291.11" x2="541.73" y2="291.11"/><path class="cls-3" d="m473.48,298.63c-4.15,0-7.52-3.37-7.52-7.52s3.37-7.52,7.52-7.52,7.52,3.37,7.52,7.52-3.37,7.52-7.52,7.52Z"/><path class="cls-3" d="m541.35,298.63c4.15,0,7.52-3.37,7.52-7.52s-3.37-7.52-7.52-7.52-7.52,3.37-7.52,7.52,3.37,7.52,7.52,7.52Z"/><line class="cls-1" x1="829.62" y1="291.11" x2="898.24" y2="291.11"/><path class="cls-3" d="m830,298.63c-4.15,0-7.52-3.37-7.52-7.52s3.37-7.52,7.52-7.52,7.52,3.37,7.52,7.52-3.37,7.52-7.52,7.52Z"/><path class="cls-3" d="m897.87,298.63c4.15,0,7.52-3.37,7.52-7.52s-3.37-7.52-7.52-7.52-7.52,3.37-7.52,7.52,3.37,7.52,7.52,7.52Z"/><path class="cls-2" d="m924.42,297.59c-1.2-.47-2.17-1.16-2.9-2.06-.73-.9-1.09-1.99-1.09-3.27s.32-2.3.96-3.13c.64-.83,1.68-1.44,3.12-1.81-1.08-.1-1.96-.55-2.66-1.35-.69-.8-1.04-1.72-1.04-2.76,0-1.96.69-3.41,2.07-4.35s3.17-1.41,5.37-1.41,4.02.46,5.42,1.4c1.39.93,2.08,2.38,2.08,4.36,0,1.02-.35,1.94-1.04,2.75-.69.81-1.56,1.27-2.59,1.37,1.42.38,2.44.98,3.07,1.8.63.82.95,1.87.95,3.15s-.37,2.37-1.09,3.27c-.73.9-1.7,1.59-2.9,2.06-1.2.47-2.5.71-3.9.71s-2.64-.23-3.84-.71Zm5.22-2.96c.34-.22.6-.54.78-.96.18-.42.27-.91.27-1.47,0-1.02-.19-1.75-.57-2.21-.38-.45-1-.67-1.86-.67s-1.43.23-1.82.69c-.39.46-.58,1.19-.58,2.19,0,.56.09,1.05.27,1.47.18.42.45.74.81.96.36.22.8.33,1.32.33.58,0,1.04-.11,1.38-.33Zm.38-8.55c.39-.48.58-1.14.58-1.98s-.19-1.44-.55-1.85c-.37-.41-.97-.62-1.79-.62s-1.38.21-1.74.62c-.36.41-.54,1.02-.54,1.85s.18,1.5.55,1.98.95.72,1.73.72,1.36-.24,1.75-.72Z"/><path class="cls-2" d="m941.66,297.36c-1.17-.62-2.1-1.56-2.78-2.82-.68-1.26-1.02-2.77-1.02-4.53,0-2.12.42-4.03,1.26-5.75.84-1.71,1.78-3.1,2.82-4.17,1.04-1.07,1.99-1.88,2.85-2.42h6.18c-1.46,1.1-2.78,2.25-3.96,3.44-1.18,1.19-2.13,2.41-2.86,3.65-.73,1.24-1.12,2.46-1.16,3.66l-.24-.03c.04-.64.25-1.31.65-2.02.39-.71.92-1.3,1.6-1.77.68-.47,1.43-.71,2.25-.71,1.74,0,3.19.51,4.35,1.53,1.16,1.02,1.74,2.7,1.74,5.04,0,1.64-.34,3.05-1.02,4.23-.68,1.18-1.61,2.08-2.78,2.69-1.17.61-2.46.92-3.88.92-1.5,0-2.83-.31-4-.93Zm5.37-2.91c.35-.3.6-.74.75-1.32.15-.58.22-1.31.22-2.19,0-1.26-.17-2.18-.5-2.76-.33-.58-.93-.87-1.81-.87s-1.47.3-1.83.9c-.36.6-.54,1.51-.54,2.73,0,.86.08,1.58.24,2.16.16.58.41,1.02.75,1.33.34.31.8.46,1.38.46.54,0,.98-.15,1.33-.45Z"/><path class="cls-2" d="m423.27,297.59c-1.2-.47-2.17-1.16-2.9-2.06-.73-.9-1.1-1.99-1.1-3.27s.32-2.3.96-3.13c.64-.83,1.68-1.44,3.12-1.81-1.08-.1-1.96-.55-2.66-1.35-.69-.8-1.03-1.72-1.03-2.76,0-1.96.69-3.41,2.07-4.35s3.17-1.41,5.37-1.41,4.02.46,5.42,1.4c1.39.93,2.08,2.38,2.08,4.36,0,1.02-.35,1.94-1.04,2.75-.69.81-1.56,1.27-2.59,1.37,1.42.38,2.44.98,3.07,1.8.63.82.95,1.87.95,3.15s-.37,2.37-1.09,3.27c-.73.9-1.7,1.59-2.9,2.06-1.2.47-2.5.71-3.9.71s-2.64-.23-3.84-.71Zm5.22-2.96c.34-.22.6-.54.78-.96.18-.42.27-.91.27-1.47,0-1.02-.19-1.75-.57-2.21-.38-.45-1-.67-1.86-.67s-1.43.23-1.81.69c-.39.46-.58,1.19-.58,2.19,0,.56.09,1.05.27,1.47.18.42.45.74.81.96.36.22.8.33,1.32.33.58,0,1.04-.11,1.38-.33Zm.38-8.55c.39-.48.58-1.14.58-1.98s-.19-1.44-.55-1.85c-.37-.41-.97-.62-1.79-.62s-1.38.21-1.74.62c-.36.41-.54,1.02-.54,1.85s.19,1.5.56,1.98c.37.48.94.72,1.73.72s1.36-.24,1.75-.72Z"/><path class="cls-2" d="m440.5,297.36c-1.17-.62-2.1-1.56-2.78-2.82-.68-1.26-1.02-2.77-1.02-4.53,0-2.12.42-4.03,1.26-5.75.84-1.71,1.78-3.1,2.82-4.17,1.04-1.07,1.99-1.88,2.85-2.42h6.18c-1.46,1.1-2.78,2.25-3.96,3.44-1.18,1.19-2.13,2.41-2.86,3.65-.73,1.24-1.12,2.46-1.16,3.66l-.24-.03c.04-.64.25-1.31.65-2.02.39-.71.92-1.3,1.6-1.77.68-.47,1.43-.71,2.25-.71,1.74,0,3.19.51,4.35,1.53,1.16,1.02,1.74,2.7,1.74,5.04,0,1.64-.34,3.05-1.02,4.23-.68,1.18-1.61,2.08-2.78,2.69-1.17.61-2.46.92-3.88.92-1.5,0-2.83-.31-4-.93Zm5.37-2.91c.35-.3.6-.74.75-1.32.15-.58.22-1.31.22-2.19,0-1.26-.17-2.18-.5-2.76-.33-.58-.93-.87-1.81-.87s-1.47.3-1.83.9c-.36.6-.54,1.51-.54,2.73,0,.86.08,1.58.24,2.16.16.58.41,1.02.75,1.33.34.31.8.46,1.38.46.54,0,.98-.15,1.33-.45Z"/></svg>