<?xml version="1.0" encoding="UTF-8"?><svg xmlns="http://www.w3.org/2000/svg" viewBox="0 0 396.15 140.89"><defs><style>.cls-1{font-family:CaperVF-Regular2, Caper;font-size:10.9px;font-variation-settings:'wdth' 100, 'wght' 400;}.cls-1,.cls-2{fill:#fff830;}.cls-3,.cls-4,.cls-2{stroke-width:0px;}.cls-4{fill:#969696;}.cls-5{fill:none;stroke:#fff830;stroke-miterlimit:10;stroke-width:.5px;}</style></defs><g id="Layer_3_copy"><rect class="cls-4" x="43.38" y="53.13" width="24.94" height="26.6"/><rect class="cls-3" x="14.21" y="14.75" width="32.64" height="102.76"/><rect class="cls-3" x="64.53" y="14.75" width="32.64" height="102.76"/><path class="cls-4" d="m125.21,114.11c-6.2-2.77-11.26-7.2-15.19-13.3-3.93-6.09-5.89-13.83-5.89-23.2,0-11.89,3.3-21.31,9.9-28.26,6.6-6.95,16.65-10.43,30.15-10.43,7.76,0,13.88,1.87,18.36,5.59,4.48,3.73,7.58,8.94,9.29,15.64,1.71,6.7,2.32,14.84,1.81,24.41h-52.74v-12.09h25.84v-1.96c.1-3.63-.15-6.35-.76-8.16s-2.02-2.72-4.23-2.72c-2.92,0-4.86,1.69-5.82,5.06-.96,3.38-1.44,8.74-1.44,16.09,0,4.43.78,8.01,2.34,10.73,1.56,2.72,3.65,4.71,6.27,5.97,2.62,1.26,5.79,1.89,9.52,1.89,2.52,0,5.21-.53,8.08-1.59,2.87-1.06,5.49-2.44,7.86-4.16,2.37-1.71,3.95-3.42,4.76-5.14v19.8c-1.71,2.12-4.08,3.91-7.1,5.36-3.02,1.46-6.37,2.59-10.05,3.4-3.68.81-7.43,1.21-11.26,1.21-6.95,0-13.53-1.38-19.72-4.16Z"/><path class="cls-3" d="m180.14,14.75h32.04v102.76h-32.04V14.75Z"/><path class="cls-3" d="m221.7,14.75h32.04v102.76h-32.04V14.75Z"/><path class="cls-4" d="m280.33,113.88c-6.04-2.92-10.93-7.45-14.66-13.6-3.73-6.14-5.59-13.7-5.59-22.67,0-11.79,3.3-21.18,9.9-28.18,6.6-7,16.65-10.5,30.15-10.5s23.55,3.48,30.15,10.43c6.6,6.95,9.9,16.37,9.9,28.26,0,8.97-1.89,16.5-5.67,22.59-3.78,6.1-8.69,10.63-14.73,13.6-6.04,2.97-12.6,4.46-19.65,4.46s-13.75-1.46-19.8-4.38Zm25.99-19.34c1.21-3.22,1.81-8.36,1.81-15.41s-.58-11.33-1.74-13.75c-1.16-2.42-3.25-3.63-6.27-3.63s-5.11,1.23-6.27,3.7c-1.16,2.47-1.74,7.03-1.74,13.68s.6,11.94,1.81,15.26,3.27,4.99,6.2,4.99,4.99-1.61,6.2-4.84Z"/><path class="cls-4" d="m343.65,14.75h31.89l-7.56,67.55h-16.92l-7.41-67.55Zm3.63,77.22h24.78v25.54h-24.78v-25.54Z"/></g><g id="Layer_5"><line class="cls-5" x1="14.46" y1="32.34" x2="46.6" y2="32.34"/><rect class="cls-2" x="14.21" y="30.72" width=".5" height="3.25"/><rect class="cls-2" x="46.35" y="30.72" width=".5" height="3.25"/><line class="cls-5" x1="64.78" y1="32.34" x2="96.93" y2="32.34"/><rect class="cls-2" x="64.53" y="30.72" width=".5" height="3.25"/><rect class="cls-2" x="96.68" y="30.72" width=".5" height="3.25"/><line class="cls-5" x1="180.09" y1="32.34" x2="212.23" y2="32.34"/><rect class="cls-2" x="179.84" y="30.72" width=".5" height="3.25"/><rect class="cls-2" x="211.98" y="30.72" width=".5" height="3.25"/><line class="cls-5" x1="221.65" y1="32.34" x2="253.79" y2="32.34"/><rect class="cls-2" x="221.4" y="30.72" width=".5" height="3.25"/><rect class="cls-2" x="253.54" y="30.72" width=".5" height="3.25"/><text class="cls-1" transform="translate(22 42.74)"><tspan x="0" y="0">215</tspan></text><text class="cls-1" transform="translate(72.96 42.74)"><tspan x="0" y="0">215</tspan></text><text class="cls-1" transform="translate(187.74 42.74)"><tspan x="0" y="0">210</tspan></text><text class="cls-1" transform="translate(230.64 42.74)"><tspan x="0" y="0">210</tspan></text></g></svg>