<?xml version="1.0" encoding="UTF-8"?><svg id="Layer_9" xmlns="http://www.w3.org/2000/svg" viewBox="0 0 1371.35 924.83"><defs><style>.cls-1{stroke-width:0px;}</style></defs><rect class="cls-1" x="731.18" y="386.59" width="70.3" height="123.11"/><rect class="cls-1" x="471.41" y="386.59" width="106.38" height="123.11"/><polygon class="cls-1" points="299.34 386.59 221.35 386.59 221.35 343.11 69.98 343.11 69.98 499.61 169.59 499.61 169.59 386.59 202.43 386.59 201.8 549.35 252.67 549.35 299.34 469.5 299.34 386.59"/><rect class="cls-1" x="1084.08" y="386.59" width="98.77" height="123.11"/><rect class="cls-1" x="834.31" y="386.59" width="75.38" height="123.11"/><polygon class="cls-1" points="1215.68 386.59 1215.68 515.99 1204.03 515.99 1204.03 549.35 1302.86 549.35 1302.86 386.59 1215.68 386.59"/><polygon class="cls-1" points="1051.24 386.59 942.53 386.59 942.53 515.99 928.57 515.99 928.57 549.35 987.59 549.35 987.59 509.7 1051.24 509.7 1051.24 386.59"/><polygon class="cls-1" points="438.58 386.59 334.95 386.59 334.87 408.71 333.99 546.48 332.68 549.35 387.75 549.35 387.75 509.7 438.58 509.7 438.58 386.59"/><polygon class="cls-1" points="698.35 515.99 698.35 386.59 610.62 386.59 610.62 515.99 604.19 515.99 604.19 549.35 712.13 549.35 712.13 515.99 698.35 515.99"/><rect class="cls-1" x="720.08" y="122.88" width="74.78" height="123.11"/><rect class="cls-1" x="493.23" y="122.88" width="111.89" height="123.11"/><rect class="cls-1" x="1008.36" y="122.88" width="106.21" height="123.11"/><rect class="cls-1" x="802.25" y="122.88" width="83.79" height="123.11"/><polygon class="cls-1" points="485.84 122.88 375.76 122.88 375.76 285.65 421.94 285.65 421.94 245.99 485.84 245.99 485.84 122.88"/><polygon class="cls-1" points="1000.96 122.88 893.44 122.88 893.44 245.99 894.68 245.99 894.68 285.65 946.28 285.65 946.28 245.99 1000.96 245.99 1000.96 122.88"/><polygon class="cls-1" points="261.7 117.14 269.09 117.14 269.09 285.65 368.37 285.65 368.37 122.88 276.49 122.88 276.49 79.4 144.17 79.4 144.17 235.91 261.7 235.91 261.7 117.14"/><polygon class="cls-1" points="1121.96 122.88 1121.96 245.99 1135.47 245.99 1135.47 285.65 1221.86 285.65 1221.86 122.88 1121.96 122.88"/><polygon class="cls-1" points="712.68 122.88 612.52 122.88 612.52 285.65 705.49 285.65 705.49 245.99 712.68 245.99 712.68 122.88"/><polygon class="cls-1" points="194.96 778.49 194.96 620.5 323.5 620.5 324.7 664.2 1158.7 664.2 1158.7 816.7 1063.78 816.7 1050.39 781.86 900.66 781.86 900.66 816.7 852.87 816.7 852.87 787.39 702.72 787.39 702.72 816.7 618.09 816.7 618.09 776.84 445.8 776.84 445.8 816.7 312.99 816.7 312.99 777.34 194.96 778.49"/></svg>