<?xml version="1.0" encoding="UTF-8"?><svg id="Layer_9" xmlns="http://www.w3.org/2000/svg" viewBox="0 0 1371.35 924.83"><defs><style>.cls-1{stroke-width:0px;}</style></defs><path class="cls-1" d="m148.06,78.62h127.22l1.21,38.23h-5.38c-2.64-12.01-5.99-19.83-10.05-23.46-4.06-3.63-12.62-5.44-25.65-5.44h-12.52v115.14c0,8.67,1.35,14.04,4.06,16.12,2.71,2.08,8.64,3.44,17.8,4.1v4.17h-65.59v-4.17c9.52-.73,15.45-2.29,17.8-4.7,2.34-2.41,3.52-8.45,3.52-18.15v-112.5h-12.63c-12.45,0-20.93,1.8-25.43,5.38-4.5,3.59-7.89,11.43-10.16,23.51h-5.49l1.32-38.23Z"/><path class="cls-1" d="m268.47,126.52h46.36v3.08c-3.66.08-6.37.41-8.13,1.01-3.37.98-5.05,2.88-5.05,5.73,0,1.05.18,2.12.55,3.2.37,1.09,1.02,2.72,1.98,4.89l25.43,54.98,20.93-55.42c.22-.6.57-1.95,1.04-4.05.48-2.1.71-3.52.71-4.27,0-1.95-.66-3.37-1.98-4.27-1.32-.9-3-1.42-5.05-1.57l-3.41-.23v-3.08h30.21v3.08c-3,.38-5.26,1.44-6.76,3.18-1.5,1.74-2.8,4.16-3.9,7.26l-34.61,91.63c-6.01,15.82-11.76,27.28-17.25,34.39-5.49,7.1-12.45,10.66-20.87,10.66-4.1,0-7.95-1.03-11.54-3.08-3.59-2.05-5.38-5.31-5.38-9.78,0-2.93,1.07-5.33,3.2-7.2,2.13-1.87,4.83-2.8,8.08-2.8,1.88,0,4.68.7,8.41,2.09,3.73,1.39,6.38,2.09,7.98,2.09,4.05,0,8.32-4.97,12.8-14.92,4.49-9.95,6.73-16.51,6.73-19.7,0-.65-.1-1.45-.31-2.39-.21-.94-.45-1.77-.73-2.5l-34.62-74.86c-2.49-5.42-4.67-8.99-6.54-10.71-1.87-1.72-4.63-2.84-8.29-3.35v-3.08Z"/><path class="cls-1" d="m378.99,272.85c6.84-.44,11.18-1.91,13.04-4.39,1.85-2.49,2.78-6.41,2.78-11.76v-105.47c0-5.57-.68-9.14-2.03-10.71-1.36-1.57-3.9-2.36-7.64-2.36-.81,0-1.56.04-2.25.11-.7.07-1.7.22-3.02.44v-3.63l10.44-3.41c.37-.07,7.73-2.6,22.08-7.58.37,0,.64.16.82.49.18.33.27.71.27,1.15v14.83c4.83-4.83,9.08-8.42,12.74-10.76,6.59-4.1,13.37-6.15,20.32-6.15,10.11,0,18.8,4.3,26.09,12.9,7.29,8.6,10.93,20.36,10.93,35.29s-4.38,27.91-13.13,39.84c-8.75,11.93-19.76,17.89-33.01,17.89-4.1,0-7.65-.51-10.66-1.54-4.69-1.54-9.01-4.35-12.96-8.46v36.03c0,7.4,1.21,11.94,3.63,13.62,2.42,1.68,7.69,2.82,15.82,3.41v3.85h-54.27v-3.63Zm43.34-54.54c3.77,2.45,8.22,3.68,13.35,3.68,7.91,0,14.67-3.93,20.27-11.79,5.6-7.86,8.41-18.82,8.41-32.86s-2.91-23.52-8.73-30.17c-5.82-6.66-12.58-9.99-20.27-9.99-5.42,0-10.36,1.67-14.83,4.99-4.47,3.33-6.7,6.6-6.7,9.82v55.19c1.9,4.97,4.74,8.69,8.51,11.14Z"/><path class="cls-1" d="m510,139.54c9.26-10.07,21.19-15.11,35.76-15.11s26.51,4.76,36.04,14.28c9.52,9.52,14.28,22.19,14.28,38.01,0,14.58-4.61,27.25-13.84,38.01s-21.17,16.15-35.82,16.15-25.96-5.16-35.71-15.49c-9.74-10.33-14.61-23.29-14.61-38.89,0-14.57,4.63-26.9,13.9-36.97Zm17.54-2.8c-7.34,6.67-11.01,18.17-11.01,34.5,0,13.04,2.95,25.2,8.86,36.47,5.91,11.28,14.11,16.92,24.6,16.92,8.22,0,14.55-3.77,18.99-11.32,4.44-7.54,6.66-17.43,6.66-29.66s-2.83-24.61-8.47-35.82c-5.65-11.21-13.83-16.81-24.55-16.81-5.8,0-10.82,1.91-15.08,5.71Z"/><path class="cls-1" d="m623.71,178.81c-3.7-5.64-5.55-11.98-5.55-19.01,0-8.57,3.41-16.7,10.22-24.39s16.44-11.54,28.89-11.54c5.35,0,11.24,1.26,17.69,3.79,6.44,2.53,12.63,3.79,18.57,3.79,1.54,0,3.86-.05,6.98-.17,3.11-.11,5.37-.16,6.76-.16h1.32v8.9h-19.01c1.32,3.08,2.34,5.75,3.08,8.02,1.24,4.25,1.87,8.28,1.87,12.08,0,8.35-3.46,16.02-10.38,23.02-6.92,7-16.24,10.49-27.96,10.49-1.83,0-5.13-.33-9.89-.99-2.12,0-4.94,1.8-8.46,5.38-3.52,3.59-5.27,6.52-5.27,8.79s2.57,4.06,7.7,5.16c3.37.73,7.11,1.1,11.22,1.1,18.85,0,31.65,1.06,38.4,3.19,11.08,3.44,16.61,10.84,16.61,22.19s-6.46,20.8-19.39,27.69c-12.93,6.88-25.98,10.33-39.17,10.33-12.01,0-21.53-2.44-28.56-7.31-7.03-4.87-10.55-9.98-10.55-15.33,0-2.64.93-5.22,2.79-7.75,1.86-2.53,5.53-6.28,11-11.26l7.22-6.48,1.31-1.32c-3.34-1.32-5.85-2.6-7.52-3.85-2.91-2.27-4.36-4.87-4.36-7.8,0-2.71,1.26-5.69,3.79-8.95,2.53-3.26,7.93-8.55,16.21-15.88-6.67-2.2-11.85-6.11-15.55-11.76Zm11.65,81.74c6.92,2.34,14.85,3.52,23.79,3.52,12.16,0,22.04-2.11,29.66-6.32,7.62-4.21,11.43-9.39,11.43-15.55,0-4.91-3.08-8.17-9.25-9.78-3.82-.95-11.05-1.5-21.69-1.65-2.71-.07-5.58-.17-8.59-.27-3.01-.11-5.76-.24-8.25-.38-1.62-.07-4.22-.37-7.82-.88-3.6-.51-6.27-.95-8.04-1.32-.88,0-3.02,2.31-6.42,6.92-3.47,4.69-5.21,9.01-5.21,12.96,0,6.15,3.46,10.4,10.38,12.74Zm34.88-75.48c4.39-3.52,6.59-9.63,6.59-18.35,0-6.96-1.78-14.79-5.33-23.51-3.55-8.72-9.47-13.07-17.74-13.07-7.18,0-12.12,3.41-14.83,10.22-1.39,3.59-2.09,8.02-2.09,13.29,0,8.94,2.16,16.96,6.48,24.06,4.32,7.1,9.92,10.66,16.81,10.66,4.03,0,7.4-1.1,10.11-3.3Z"/><path class="cls-1" d="m716.38,223.86c6.74-.59,11.21-1.77,13.4-3.57,2.2-1.79,3.3-5.62,3.3-11.48v-49.55c0-7.25-.68-12.43-2.03-15.55-1.36-3.11-3.83-4.67-7.42-4.67-.73,0-1.7.09-2.91.27-1.21.18-2.47.42-3.79.71v-3.63c4.16-1.46,8.43-2.97,12.81-4.5,4.38-1.54,7.41-2.64,9.09-3.3,3.65-1.39,7.41-2.97,11.28-4.72.51,0,.82.18.93.55.11.37.17,1.14.17,2.31v18.02c4.7-6.52,9.23-11.61,13.6-15.27,4.37-3.66,8.91-5.49,13.61-5.49,3.75,0,6.79,1.12,9.14,3.35,2.35,2.24,3.53,5.04,3.53,8.4,0,3-.9,5.53-2.69,7.58-1.79,2.05-4.05,3.08-6.76,3.08s-5.59-1.28-8.41-3.85c-2.82-2.56-5.04-3.85-6.65-3.85-2.56,0-5.71,2.07-9.45,6.21-3.74,4.14-5.6,8.4-5.6,12.8v49.55c0,6.3,1.46,10.68,4.39,13.13,2.93,2.45,7.8,3.61,14.61,3.46v3.63h-54.16v-3.63Z"/><path class="cls-1" d="m814.49,179.03c6.74-4.39,20.18-10.36,40.32-17.91v-9.34c0-7.47-.73-12.67-2.2-15.6-2.49-4.91-7.66-7.36-15.49-7.36-3.74,0-7.29.95-10.66,2.86-3.37,1.98-5.05,4.69-5.05,8.13,0,.88.18,2.36.55,4.45.37,2.09.55,3.42.55,4.01,0,4.1-1.36,6.96-4.07,8.57-1.54.95-3.37,1.43-5.49,1.43-3.3,0-5.82-1.08-7.58-3.24-1.76-2.16-2.64-4.56-2.64-7.2,0-5.13,3.17-10.49,9.5-16.1,6.33-5.6,15.62-8.4,27.85-8.4,14.21,0,23.84,4.61,28.89,13.84,2.71,5.05,4.06,12.41,4.06,22.08v44.06c0,4.25.29,7.18.88,8.79.95,2.86,2.93,4.28,5.93,4.28,1.68,0,3.08-.26,4.17-.77,1.1-.51,3-1.76,5.71-3.74v5.71c-2.34,2.86-4.87,5.2-7.58,7.03-4.1,2.78-8.28,4.17-12.52,4.17-4.98,0-8.59-1.61-10.82-4.83-2.24-3.22-3.46-7.07-3.68-11.54-5.57,4.83-10.33,8.42-14.28,10.77-6.67,3.96-13,5.93-19.01,5.93-6.3,0-11.76-2.21-16.37-6.65-4.61-4.43-6.92-10.05-6.92-16.86,0-10.62,5.31-19.48,15.93-26.59Zm40.32-12.41c-8.42,2.78-15.38,5.86-20.88,9.23-10.55,6.52-15.82,13.92-15.82,22.19,0,6.67,2.2,11.57,6.59,14.72,2.86,2.05,6.04,3.08,9.56,3.08,4.83,0,9.47-1.35,13.9-4.06,4.43-2.71,6.65-6.15,6.65-10.33v-34.83Z"/><path class="cls-1" d="m891.28,272.85c6.84-.44,11.18-1.91,13.04-4.39,1.85-2.49,2.78-6.41,2.78-11.76v-105.47c0-5.57-.68-9.14-2.03-10.71-1.36-1.57-3.9-2.36-7.64-2.36-.81,0-1.56.04-2.25.11-.7.07-1.7.22-3.02.44v-3.63l10.44-3.41c.37-.07,7.73-2.6,22.08-7.58.37,0,.64.16.82.49.18.33.27.71.27,1.15v14.83c4.83-4.83,9.08-8.42,12.74-10.76,6.59-4.1,13.37-6.15,20.32-6.15,10.11,0,18.8,4.3,26.09,12.9,7.29,8.6,10.93,20.36,10.93,35.29s-4.38,27.91-13.13,39.84c-8.75,11.93-19.76,17.89-33.01,17.89-4.1,0-7.65-.51-10.66-1.54-4.69-1.54-9.01-4.35-12.96-8.46v36.03c0,7.4,1.21,11.94,3.62,13.62,2.42,1.68,7.69,2.82,15.82,3.41v3.85h-54.27v-3.63Zm43.34-54.54c3.77,2.45,8.22,3.68,13.35,3.68,7.91,0,14.67-3.93,20.27-11.79,5.6-7.86,8.41-18.82,8.41-32.86s-2.91-23.52-8.73-30.17c-5.82-6.66-12.58-9.99-20.27-9.99-5.42,0-10.37,1.67-14.83,4.99-4.47,3.33-6.7,6.6-6.7,9.82v55.19c1.9,4.97,4.74,8.69,8.51,11.14Z"/><path class="cls-1" d="m1004.66,224.4c6-.81,9.94-2.29,11.81-4.45,1.87-2.16,2.8-7.27,2.8-15.33v-105.47c0-4.1-.53-7.12-1.59-9.06-1.06-1.94-3.64-2.91-7.75-2.91-.81,0-1.59.06-2.36.16-.77.11-1.63.24-2.58.38v-3.96c3.22-.95,7.2-2.1,11.92-3.46,4.72-1.35,8-2.32,9.83-2.91l10.55-3.3.22.77v67.46c4.62-5.27,8.72-9.15,12.3-11.65,6.44-4.39,13.4-6.59,20.88-6.59,11.87,0,19.96,4.98,24.28,14.94,2.34,5.27,3.52,12.19,3.52,20.76v44.82c0,7.76.9,12.82,2.69,15.16,1.79,2.34,5.47,3.88,11.04,4.61v3.08h-47.57v-3.08c6.37-.88,10.47-2.38,12.3-4.5,1.83-2.12,2.75-7.21,2.75-15.27v-44.49c0-7.1-1.19-12.85-3.57-17.25-2.38-4.39-6.87-6.59-13.46-6.59-5.71,0-11.24,2.05-16.59,6.15-5.35,4.1-8.02,6.78-8.02,8.02v54.16c0,8.2.95,13.33,2.86,15.38,1.9,2.05,5.97,3.52,12.2,4.39v3.08h-48.45v-3.08Z"/><path class="cls-1" d="m1118.26,126.52h46.36v3.08c-3.66.08-6.37.41-8.13,1.01-3.37.98-5.05,2.88-5.05,5.73,0,1.05.18,2.12.55,3.2.37,1.09,1.02,2.72,1.98,4.89l25.43,54.98,20.93-55.42c.22-.6.57-1.95,1.04-4.05.48-2.1.71-3.52.71-4.27,0-1.95-.66-3.37-1.98-4.27-1.32-.9-3-1.42-5.05-1.57l-3.41-.23v-3.08h30.21v3.08c-3,.38-5.26,1.44-6.76,3.18-1.5,1.74-2.8,4.16-3.9,7.26l-34.61,91.63c-6.01,15.82-11.76,27.28-17.25,34.39-5.49,7.1-12.45,10.66-20.87,10.66-4.1,0-7.95-1.03-11.54-3.08-3.59-2.05-5.38-5.31-5.38-9.78,0-2.93,1.07-5.33,3.2-7.2,2.13-1.87,4.83-2.8,8.08-2.8,1.88,0,4.68.7,8.41,2.09,3.73,1.39,6.38,2.09,7.98,2.09,4.05,0,8.32-4.97,12.8-14.92,4.49-9.95,6.73-16.51,6.73-19.7,0-.65-.1-1.45-.31-2.39-.21-.94-.46-1.77-.73-2.5l-34.62-74.86c-2.49-5.42-4.67-8.99-6.54-10.71-1.87-1.72-4.63-2.84-8.29-3.35v-3.08Z"/><path class="cls-1" d="m67.06,348.62h127.22l1.21,38.23h-5.38c-2.64-12.01-5.99-19.83-10.05-23.46-4.06-3.63-12.62-5.44-25.65-5.44h-12.52v115.14c0,8.67,1.35,14.04,4.06,16.12,2.71,2.08,8.64,3.44,17.8,4.1v4.17h-65.59v-4.17c9.52-.73,15.45-2.29,17.8-4.7,2.34-2.4,3.52-8.45,3.52-18.15v-112.5h-12.63c-12.45,0-20.93,1.8-25.43,5.38-4.5,3.59-7.89,11.43-10.16,23.51h-5.49l1.32-38.23Z"/><path class="cls-1" d="m205.47,396.52h46.36v3.08c-3.66.08-6.37.41-8.13,1.01-3.37.98-5.05,2.88-5.05,5.73,0,1.05.18,2.12.55,3.2.37,1.09,1.02,2.72,1.98,4.89l25.43,54.98,20.93-55.42c.22-.6.57-1.95,1.04-4.05.48-2.1.71-3.52.71-4.27,0-1.95-.66-3.37-1.98-4.27-1.32-.9-3-1.42-5.05-1.57l-3.41-.23v-3.08h30.21v3.08c-3,.38-5.26,1.44-6.76,3.18-1.5,1.74-2.8,4.16-3.9,7.26l-34.61,91.63c-6.01,15.82-11.76,27.28-17.25,34.39-5.49,7.1-12.45,10.66-20.87,10.66-4.1,0-7.95-1.03-11.54-3.08-3.59-2.05-5.38-5.31-5.38-9.78,0-2.93,1.07-5.33,3.2-7.2,2.13-1.87,4.83-2.8,8.08-2.8,1.88,0,4.68.7,8.41,2.09,3.73,1.39,6.38,2.09,7.98,2.09,4.05,0,8.32-4.97,12.8-14.92,4.49-9.95,6.73-16.51,6.73-19.7,0-.65-.1-1.45-.31-2.39-.21-.94-.45-1.78-.73-2.5l-34.62-74.86c-2.49-5.42-4.67-8.99-6.54-10.71-1.87-1.72-4.63-2.84-8.29-3.35v-3.08Z"/><path class="cls-1" d="m333.99,542.85c6.84-.44,11.18-1.91,13.04-4.39,1.85-2.49,2.78-6.41,2.78-11.75v-105.47c0-5.57-.68-9.14-2.03-10.71-1.36-1.57-3.9-2.36-7.64-2.36-.81,0-1.56.04-2.25.11-.7.07-1.7.22-3.02.44v-3.63l10.44-3.41c.37-.07,7.73-2.6,22.08-7.58.37,0,.64.16.82.49.18.33.27.71.27,1.15v14.83c4.83-4.83,9.08-8.42,12.74-10.76,6.59-4.1,13.37-6.15,20.32-6.15,10.11,0,18.8,4.3,26.09,12.9,7.29,8.6,10.93,20.36,10.93,35.29s-4.38,27.91-13.13,39.84c-8.75,11.93-19.76,17.89-33.01,17.89-4.1,0-7.65-.51-10.66-1.54-4.69-1.54-9.01-4.35-12.96-8.46v36.03c0,7.4,1.21,11.94,3.63,13.62,2.42,1.68,7.69,2.82,15.82,3.41v3.84h-54.27v-3.63Zm43.34-54.54c3.77,2.45,8.22,3.67,13.35,3.67,7.91,0,14.67-3.93,20.27-11.79,5.6-7.86,8.4-18.82,8.4-32.86s-2.91-23.52-8.73-30.17c-5.82-6.66-12.58-9.99-20.27-9.99-5.42,0-10.36,1.67-14.83,4.99-4.47,3.33-6.7,6.6-6.7,9.82v55.19c1.9,4.97,4.74,8.69,8.51,11.14Z"/><path class="cls-1" d="m483,409.54c9.26-10.07,21.19-15.11,35.76-15.11s26.51,4.76,36.04,14.28c9.52,9.52,14.28,22.19,14.28,38.01,0,14.58-4.61,27.25-13.84,38.01s-21.17,16.15-35.82,16.15-25.96-5.16-35.71-15.49c-9.74-10.33-14.61-23.29-14.61-38.89,0-14.57,4.63-26.9,13.9-36.97Zm17.54-2.8c-7.34,6.67-11.01,18.17-11.01,34.5,0,13.04,2.95,25.2,8.86,36.47,5.91,11.28,14.11,16.92,24.6,16.92,8.22,0,14.55-3.77,18.99-11.32,4.44-7.54,6.66-17.43,6.66-29.66s-2.83-24.61-8.47-35.82c-5.65-11.21-13.83-16.81-24.55-16.81-5.8,0-10.82,1.91-15.08,5.71Z"/><path class="cls-1" d="m614.71,448.81c-3.7-5.64-5.55-11.98-5.55-19.01,0-8.57,3.41-16.7,10.22-24.39s16.44-11.54,28.89-11.54c5.35,0,11.24,1.26,17.69,3.79,6.44,2.53,12.63,3.79,18.57,3.79,1.54,0,3.86-.05,6.98-.17,3.11-.11,5.37-.16,6.76-.16h1.32v8.9h-19.01c1.32,3.08,2.34,5.75,3.08,8.02,1.24,4.25,1.87,8.28,1.87,12.08,0,8.35-3.46,16.02-10.38,23.02-6.92,7-16.24,10.49-27.96,10.49-1.83,0-5.13-.33-9.89-.99-2.12,0-4.94,1.8-8.46,5.38-3.52,3.59-5.27,6.52-5.27,8.79s2.57,4.06,7.7,5.16c3.37.73,7.11,1.1,11.22,1.1,18.85,0,31.65,1.06,38.4,3.19,11.08,3.44,16.61,10.84,16.61,22.19s-6.46,20.8-19.39,27.69c-12.93,6.88-25.98,10.33-39.17,10.33-12.01,0-21.53-2.44-28.56-7.31-7.03-4.87-10.55-9.98-10.55-15.33,0-2.64.93-5.22,2.79-7.75,1.86-2.53,5.53-6.28,11-11.26l7.22-6.48,1.31-1.32c-3.34-1.32-5.85-2.6-7.52-3.85-2.91-2.27-4.36-4.87-4.36-7.8,0-2.71,1.26-5.69,3.79-8.95,2.53-3.26,7.93-8.55,16.21-15.88-6.67-2.2-11.85-6.11-15.55-11.76Zm11.65,81.74c6.92,2.34,14.85,3.52,23.79,3.52,12.16,0,22.04-2.11,29.66-6.32,7.62-4.21,11.43-9.39,11.43-15.55,0-4.91-3.08-8.17-9.25-9.78-3.82-.95-11.05-1.5-21.69-1.65-2.71-.07-5.58-.17-8.59-.27-3.01-.11-5.76-.24-8.25-.38-1.62-.07-4.22-.37-7.82-.88-3.6-.51-6.27-.95-8.04-1.32-.88,0-3.02,2.31-6.42,6.92-3.47,4.69-5.21,9.01-5.21,12.96,0,6.15,3.46,10.4,10.38,12.74Zm34.88-75.48c4.39-3.52,6.59-9.63,6.59-18.35,0-6.96-1.78-14.79-5.33-23.51-3.55-8.72-9.47-13.07-17.74-13.07-7.18,0-12.12,3.41-14.83,10.22-1.39,3.59-2.09,8.02-2.09,13.29,0,8.94,2.16,16.96,6.48,24.06,4.32,7.1,9.92,10.66,16.81,10.66,4.03,0,7.4-1.1,10.11-3.3Z"/><path class="cls-1" d="m725.38,493.86c6.74-.59,11.21-1.78,13.4-3.57,2.2-1.79,3.3-5.62,3.3-11.48v-49.55c0-7.25-.68-12.43-2.03-15.55-1.36-3.11-3.83-4.67-7.42-4.67-.73,0-1.7.09-2.91.27-1.21.18-2.47.42-3.79.71v-3.63c4.16-1.46,8.43-2.97,12.81-4.5,4.38-1.54,7.41-2.64,9.09-3.3,3.65-1.39,7.41-2.97,11.28-4.72.51,0,.82.18.93.55.11.37.17,1.14.17,2.31v18.02c4.7-6.52,9.23-11.61,13.6-15.27,4.37-3.66,8.91-5.49,13.61-5.49,3.75,0,6.79,1.12,9.14,3.35,2.35,2.24,3.53,5.04,3.53,8.4,0,3-.9,5.53-2.69,7.58-1.79,2.05-4.05,3.08-6.76,3.08s-5.59-1.28-8.41-3.85c-2.82-2.56-5.04-3.85-6.65-3.85-2.56,0-5.71,2.07-9.45,6.21-3.74,4.14-5.6,8.4-5.6,12.8v49.55c0,6.3,1.46,10.68,4.39,13.13,2.93,2.45,7.8,3.61,14.61,3.46v3.62h-54.16v-3.62Z"/><path class="cls-1" d="m841.49,449.03c6.74-4.39,20.18-10.36,40.32-17.91v-9.34c0-7.47-.73-12.67-2.2-15.6-2.49-4.91-7.66-7.36-15.49-7.36-3.74,0-7.29.95-10.66,2.86-3.37,1.98-5.05,4.69-5.05,8.13,0,.88.18,2.36.55,4.45.37,2.09.55,3.42.55,4.01,0,4.1-1.36,6.96-4.06,8.57-1.54.95-3.37,1.43-5.49,1.43-3.3,0-5.82-1.08-7.58-3.24-1.76-2.16-2.64-4.56-2.64-7.2,0-5.13,3.17-10.49,9.5-16.1,6.33-5.6,15.62-8.4,27.85-8.4,14.21,0,23.84,4.61,28.89,13.84,2.71,5.05,4.06,12.41,4.06,22.08v44.06c0,4.25.29,7.18.88,8.79.95,2.86,2.93,4.29,5.93,4.29,1.68,0,3.08-.26,4.17-.77,1.1-.51,3-1.76,5.71-3.74v5.71c-2.34,2.86-4.87,5.2-7.58,7.03-4.1,2.78-8.28,4.17-12.52,4.17-4.98,0-8.59-1.61-10.82-4.83-2.24-3.22-3.46-7.07-3.68-11.54-5.57,4.83-10.33,8.42-14.28,10.77-6.67,3.96-13,5.93-19.01,5.93-6.3,0-11.76-2.21-16.37-6.65-4.61-4.43-6.92-10.05-6.92-16.86,0-10.62,5.31-19.48,15.93-26.59Zm40.32-12.41c-8.42,2.78-15.38,5.86-20.88,9.23-10.55,6.52-15.82,13.92-15.82,22.19,0,6.67,2.2,11.57,6.59,14.72,2.86,2.05,6.04,3.08,9.56,3.08,4.83,0,9.47-1.35,13.9-4.07,4.43-2.71,6.65-6.15,6.65-10.33v-34.83Z"/><path class="cls-1" d="m936.28,542.85c6.84-.44,11.18-1.91,13.04-4.39,1.85-2.49,2.78-6.41,2.78-11.75v-105.47c0-5.57-.68-9.14-2.03-10.71-1.36-1.57-3.9-2.36-7.64-2.36-.81,0-1.56.04-2.25.11-.7.07-1.7.22-3.02.44v-3.63l10.44-3.41c.37-.07,7.73-2.6,22.08-7.58.37,0,.64.16.82.49.18.33.27.71.27,1.15v14.83c4.83-4.83,9.08-8.42,12.74-10.76,6.59-4.1,13.37-6.15,20.32-6.15,10.11,0,18.8,4.3,26.09,12.9,7.29,8.6,10.93,20.36,10.93,35.29s-4.38,27.91-13.13,39.84c-8.75,11.93-19.76,17.89-33.01,17.89-4.1,0-7.65-.51-10.66-1.54-4.69-1.54-9.01-4.35-12.96-8.46v36.03c0,7.4,1.21,11.94,3.62,13.62,2.42,1.68,7.69,2.82,15.82,3.41v3.84h-54.27v-3.63Zm43.34-54.54c3.77,2.45,8.22,3.67,13.35,3.67,7.91,0,14.67-3.93,20.27-11.79,5.6-7.86,8.41-18.82,8.41-32.86s-2.91-23.52-8.73-30.17c-5.82-6.66-12.58-9.99-20.27-9.99-5.42,0-10.37,1.67-14.83,4.99-4.47,3.33-6.7,6.6-6.7,9.82v55.19c1.9,4.97,4.74,8.69,8.51,11.14Z"/><path class="cls-1" d="m1067.66,494.4c6-.8,9.94-2.29,11.81-4.45,1.87-2.16,2.8-7.27,2.8-15.33v-105.47c0-4.1-.53-7.12-1.59-9.06-1.06-1.94-3.64-2.91-7.75-2.91-.81,0-1.59.06-2.36.16-.77.11-1.63.24-2.58.38v-3.96c3.22-.95,7.2-2.1,11.92-3.46,4.72-1.35,8-2.32,9.83-2.91l10.55-3.3.22.77v67.46c4.62-5.27,8.72-9.15,12.3-11.65,6.44-4.39,13.4-6.59,20.88-6.59,11.87,0,19.96,4.98,24.28,14.94,2.34,5.27,3.52,12.19,3.52,20.76v44.82c0,7.76.9,12.82,2.69,15.16,1.79,2.34,5.47,3.88,11.04,4.61v3.08h-47.57v-3.08c6.37-.88,10.47-2.38,12.3-4.5,1.83-2.12,2.75-7.21,2.75-15.27v-44.49c0-7.1-1.19-12.85-3.57-17.25-2.38-4.39-6.87-6.59-13.46-6.59-5.71,0-11.24,2.05-16.59,6.15-5.35,4.1-8.02,6.78-8.02,8.02v54.16c0,8.2.95,13.33,2.86,15.38,1.9,2.05,5.97,3.52,12.2,4.39v3.08h-48.45v-3.08Z"/><path class="cls-1" d="m1199.26,396.52h46.36v3.08c-3.66.08-6.37.41-8.13,1.01-3.37.98-5.05,2.88-5.05,5.73,0,1.05.18,2.12.55,3.2.37,1.09,1.02,2.72,1.98,4.89l25.43,54.98,20.93-55.42c.22-.6.57-1.95,1.04-4.05.48-2.1.71-3.52.71-4.27,0-1.95-.66-3.37-1.98-4.27-1.32-.9-3-1.42-5.05-1.57l-3.41-.23v-3.08h30.21v3.08c-3,.38-5.26,1.44-6.76,3.18-1.5,1.74-2.8,4.16-3.9,7.26l-34.61,91.63c-6.01,15.82-11.76,27.28-17.25,34.39-5.49,7.1-12.45,10.66-20.87,10.66-4.1,0-7.95-1.03-11.54-3.08-3.59-2.05-5.38-5.31-5.38-9.78,0-2.93,1.07-5.33,3.2-7.2,2.13-1.87,4.83-2.8,8.08-2.8,1.88,0,4.68.7,8.41,2.09,3.73,1.39,6.38,2.09,7.98,2.09,4.05,0,8.32-4.97,12.8-14.92,4.49-9.95,6.73-16.51,6.73-19.7,0-.65-.1-1.45-.31-2.39-.21-.94-.46-1.78-.73-2.5l-34.62-74.86c-2.49-5.42-4.67-8.99-6.54-10.71-1.87-1.72-4.63-2.84-8.29-3.35v-3.08Z"/><path class="cls-1" d="m203.74,618.62h127.22l1.21,38.23h-5.38c-2.64-12.01-5.99-19.83-10.05-23.46-4.06-3.63-12.62-5.44-25.65-5.44h-12.52v115.14c0,8.67,1.35,14.04,4.06,16.12,2.71,2.08,8.64,3.44,17.8,4.1v4.17h-65.59v-4.17c9.52-.73,15.45-2.29,17.8-4.7,2.34-2.4,3.52-8.45,3.52-18.15v-112.5h-12.63c-12.45,0-20.93,1.8-25.43,5.38-4.5,3.59-7.89,11.43-10.16,23.51h-5.49l1.32-38.23Z"/><path class="cls-1" d="m311.78,666.52h46.36v3.08c-3.66.08-6.37.41-8.13,1.01-3.37.97-5.05,2.88-5.05,5.73,0,1.05.18,2.12.55,3.2.37,1.09,1.02,2.71,1.98,4.89l25.43,54.98,20.93-55.42c.22-.6.57-1.95,1.04-4.05.48-2.1.71-3.52.71-4.27,0-1.95-.66-3.37-1.98-4.27s-3-1.42-5.05-1.57l-3.41-.23v-3.08h30.21v3.08c-3,.38-5.26,1.44-6.76,3.18-1.5,1.74-2.8,4.16-3.9,7.26l-34.61,91.63c-6.01,15.82-11.76,27.28-17.25,34.39-5.49,7.1-12.45,10.66-20.87,10.66-4.1,0-7.95-1.03-11.54-3.08-3.59-2.05-5.38-5.31-5.38-9.78,0-2.93,1.07-5.33,3.2-7.2,2.13-1.87,4.83-2.8,8.08-2.8,1.88,0,4.68.7,8.41,2.09,3.73,1.39,6.38,2.09,7.98,2.09,4.05,0,8.32-4.97,12.8-14.92,4.49-9.95,6.73-16.51,6.73-19.7,0-.65-.1-1.45-.31-2.39-.21-.94-.45-1.78-.73-2.5l-34.62-74.87c-2.49-5.42-4.67-8.99-6.54-10.71-1.87-1.72-4.63-2.84-8.29-3.35v-3.08Z"/><path class="cls-1" d="m409.93,812.85c6.84-.44,11.18-1.91,13.04-4.39,1.85-2.49,2.78-6.41,2.78-11.75v-105.47c0-5.57-.68-9.14-2.03-10.71-1.36-1.57-3.9-2.36-7.64-2.36-.81,0-1.56.04-2.25.11-.7.07-1.7.22-3.02.44v-3.62l10.44-3.41c.37-.07,7.73-2.6,22.08-7.58.37,0,.64.16.82.49.18.33.27.71.27,1.15v14.83c4.83-4.83,9.08-8.42,12.74-10.76,6.59-4.1,13.37-6.15,20.33-6.15,10.11,0,18.8,4.3,26.09,12.89,7.29,8.6,10.93,20.36,10.93,35.29s-4.38,27.91-13.13,39.84c-8.75,11.93-19.76,17.89-33.01,17.89-4.1,0-7.65-.51-10.66-1.54-4.69-1.54-9.01-4.35-12.96-8.46v36.03c0,7.4,1.21,11.94,3.62,13.62,2.42,1.68,7.69,2.82,15.82,3.41v3.84h-54.27v-3.63Zm43.34-54.54c3.77,2.45,8.22,3.67,13.35,3.67,7.91,0,14.67-3.93,20.27-11.79,5.6-7.86,8.41-18.82,8.41-32.86s-2.91-23.52-8.73-30.17c-5.82-6.66-12.58-9.99-20.27-9.99-5.42,0-10.37,1.67-14.83,4.99-4.47,3.33-6.7,6.6-6.7,9.82v55.19c1.9,4.97,4.74,8.69,8.51,11.14Z"/><path class="cls-1" d="m528.56,679.54c9.26-10.07,21.19-15.11,35.76-15.11s26.51,4.76,36.04,14.28c9.52,9.52,14.28,22.19,14.28,38.01,0,14.58-4.61,27.25-13.84,38.01s-21.17,16.15-35.82,16.15-25.96-5.16-35.71-15.49c-9.74-10.33-14.61-23.29-14.61-38.89,0-14.57,4.63-26.9,13.9-36.97Zm17.54-2.8c-7.34,6.67-11.01,18.17-11.01,34.5,0,13.04,2.95,25.2,8.86,36.47,5.91,11.28,14.11,16.92,24.6,16.92,8.22,0,14.55-3.77,18.99-11.32,4.44-7.54,6.66-17.43,6.66-29.66s-2.83-24.61-8.47-35.81c-5.65-11.21-13.83-16.81-24.55-16.81-5.8,0-10.82,1.91-15.08,5.71Z"/><path class="cls-1" d="m629.9,718.81c-3.7-5.64-5.55-11.97-5.55-19.01,0-8.57,3.41-16.7,10.22-24.39s16.44-11.54,28.89-11.54c5.35,0,11.24,1.26,17.69,3.79,6.44,2.53,12.63,3.79,18.57,3.79,1.54,0,3.86-.05,6.98-.17,3.11-.11,5.37-.16,6.76-.16h1.32v8.9h-19.01c1.32,3.08,2.34,5.75,3.08,8.02,1.24,4.25,1.87,8.28,1.87,12.09,0,8.35-3.46,16.02-10.38,23.02-6.92,7-16.24,10.49-27.96,10.49-1.83,0-5.13-.33-9.89-.99-2.12,0-4.94,1.79-8.46,5.38-3.52,3.59-5.27,6.52-5.27,8.79s2.57,4.06,7.7,5.16c3.37.73,7.11,1.1,11.22,1.1,18.85,0,31.65,1.06,38.4,3.19,11.08,3.44,16.61,10.84,16.61,22.19s-6.46,20.8-19.39,27.69c-12.93,6.88-25.98,10.33-39.17,10.33-12.01,0-21.53-2.44-28.56-7.31-7.03-4.87-10.55-9.98-10.55-15.33,0-2.64.93-5.22,2.79-7.75,1.86-2.53,5.53-6.28,11-11.26l7.22-6.48,1.31-1.32c-3.34-1.32-5.85-2.6-7.52-3.85-2.91-2.27-4.36-4.87-4.36-7.8,0-2.71,1.26-5.69,3.79-8.95,2.53-3.26,7.93-8.55,16.21-15.88-6.67-2.2-11.85-6.11-15.55-11.76Zm11.65,81.74c6.92,2.34,14.85,3.52,23.79,3.52,12.16,0,22.04-2.11,29.66-6.32,7.62-4.21,11.43-9.39,11.43-15.55,0-4.91-3.08-8.17-9.25-9.78-3.82-.95-11.05-1.5-21.69-1.65-2.71-.07-5.58-.17-8.59-.27-3.01-.11-5.76-.24-8.25-.38-1.62-.07-4.22-.37-7.82-.88-3.6-.51-6.27-.95-8.04-1.32-.88,0-3.02,2.31-6.42,6.92-3.47,4.69-5.21,9.01-5.21,12.96,0,6.15,3.46,10.4,10.38,12.74Zm34.88-75.48c4.39-3.52,6.59-9.63,6.59-18.35,0-6.96-1.78-14.79-5.33-23.51-3.55-8.71-9.47-13.07-17.74-13.07-7.18,0-12.12,3.41-14.83,10.22-1.39,3.59-2.09,8.02-2.09,13.29,0,8.94,2.16,16.96,6.48,24.06,4.32,7.1,9.92,10.66,16.81,10.66,4.03,0,7.4-1.1,10.11-3.3Z"/><path class="cls-1" d="m710.19,763.86c6.74-.59,11.21-1.78,13.4-3.57,2.2-1.79,3.3-5.62,3.3-11.48v-49.55c0-7.25-.68-12.43-2.03-15.55-1.36-3.11-3.83-4.67-7.42-4.67-.73,0-1.7.09-2.91.27-1.21.18-2.47.42-3.79.71v-3.62c4.16-1.46,8.43-2.97,12.81-4.5,4.38-1.54,7.41-2.64,9.09-3.3,3.65-1.39,7.41-2.97,11.28-4.72.51,0,.82.18.93.55.11.37.17,1.14.17,2.31v18.02c4.7-6.52,9.23-11.61,13.6-15.27,4.37-3.66,8.91-5.49,13.61-5.49,3.75,0,6.79,1.12,9.14,3.35,2.35,2.24,3.53,5.04,3.53,8.4,0,3-.9,5.53-2.69,7.58-1.79,2.05-4.05,3.08-6.76,3.08s-5.59-1.28-8.41-3.84c-2.82-2.56-5.04-3.85-6.65-3.85-2.56,0-5.71,2.07-9.45,6.21-3.74,4.14-5.6,8.4-5.6,12.8v49.55c0,6.3,1.46,10.68,4.39,13.13,2.93,2.45,7.8,3.61,14.61,3.46v3.62h-54.16v-3.62Z"/><path class="cls-1" d="m795.92,719.03c6.74-4.39,20.18-10.36,40.32-17.91v-9.34c0-7.47-.73-12.67-2.2-15.6-2.49-4.91-7.66-7.36-15.49-7.36-3.74,0-7.29.95-10.66,2.86-3.37,1.98-5.05,4.69-5.05,8.13,0,.88.18,2.36.55,4.45.37,2.09.55,3.42.55,4.01,0,4.1-1.36,6.96-4.07,8.57-1.54.95-3.37,1.43-5.49,1.43-3.3,0-5.82-1.08-7.58-3.24-1.76-2.16-2.64-4.56-2.64-7.2,0-5.13,3.17-10.49,9.5-16.1,6.33-5.6,15.62-8.4,27.85-8.4,14.21,0,23.84,4.61,28.89,13.84,2.71,5.05,4.06,12.42,4.06,22.08v44.05c0,4.25.29,7.18.88,8.79.95,2.86,2.93,4.29,5.93,4.29,1.68,0,3.08-.26,4.17-.77,1.1-.51,3-1.76,5.71-3.74v5.71c-2.34,2.86-4.87,5.2-7.58,7.03-4.1,2.78-8.28,4.17-12.52,4.17-4.98,0-8.59-1.61-10.82-4.83-2.24-3.22-3.46-7.07-3.68-11.54-5.57,4.83-10.33,8.42-14.28,10.77-6.67,3.96-13,5.93-19.01,5.93-6.3,0-11.76-2.21-16.37-6.65-4.61-4.43-6.92-10.05-6.92-16.86,0-10.62,5.31-19.48,15.93-26.59Zm40.32-12.42c-8.42,2.78-15.38,5.86-20.87,9.23-10.55,6.52-15.82,13.92-15.82,22.19,0,6.67,2.2,11.57,6.59,14.72,2.86,2.05,6.04,3.08,9.56,3.08,4.83,0,9.47-1.35,13.9-4.07,4.43-2.71,6.65-6.15,6.65-10.33v-34.83Z"/><path class="cls-1" d="m860.34,812.85c6.84-.44,11.18-1.91,13.04-4.39,1.85-2.49,2.78-6.41,2.78-11.75v-105.47c0-5.57-.68-9.14-2.03-10.71-1.36-1.57-3.9-2.36-7.64-2.36-.81,0-1.56.04-2.25.11-.7.07-1.7.22-3.02.44v-3.62l10.44-3.41c.37-.07,7.73-2.6,22.08-7.58.37,0,.64.16.82.49.18.33.27.71.27,1.15v14.83c4.83-4.83,9.08-8.42,12.74-10.76,6.59-4.1,13.37-6.15,20.32-6.15,10.11,0,18.8,4.3,26.09,12.89,7.29,8.6,10.93,20.36,10.93,35.29s-4.38,27.91-13.13,39.84c-8.75,11.93-19.76,17.89-33.01,17.89-4.1,0-7.65-.51-10.66-1.54-4.69-1.54-9.01-4.35-12.96-8.46v36.03c0,7.4,1.21,11.94,3.62,13.62,2.42,1.68,7.69,2.82,15.82,3.41v3.84h-54.27v-3.63Zm43.34-54.54c3.77,2.45,8.22,3.67,13.35,3.67,7.91,0,14.67-3.93,20.27-11.79,5.6-7.86,8.41-18.82,8.41-32.86s-2.91-23.52-8.73-30.17c-5.82-6.66-12.58-9.99-20.27-9.99-5.42,0-10.37,1.67-14.83,4.99-4.47,3.33-6.7,6.6-6.7,9.82v55.19c1.9,4.97,4.74,8.69,8.51,11.14Z"/><path class="cls-1" d="m961.35,764.4c6-.8,9.94-2.29,11.81-4.45,1.87-2.16,2.8-7.27,2.8-15.33v-105.47c0-4.1-.53-7.12-1.59-9.06-1.06-1.94-3.64-2.91-7.75-2.91-.81,0-1.59.05-2.36.16-.77.11-1.63.24-2.58.38v-3.96c3.22-.95,7.2-2.1,11.92-3.46,4.72-1.35,8-2.32,9.83-2.91l10.55-3.3.22.77v67.46c4.62-5.27,8.72-9.15,12.3-11.64,6.44-4.39,13.4-6.59,20.88-6.59,11.87,0,19.96,4.98,24.28,14.94,2.34,5.27,3.52,12.19,3.52,20.76v44.82c0,7.76.9,12.82,2.69,15.16,1.79,2.34,5.47,3.88,11.04,4.61v3.08h-47.57v-3.08c6.37-.88,10.47-2.38,12.3-4.5,1.83-2.12,2.75-7.21,2.75-15.27v-44.49c0-7.1-1.19-12.85-3.57-17.25-2.38-4.39-6.87-6.59-13.46-6.59-5.71,0-11.24,2.05-16.59,6.15-5.35,4.1-8.02,6.78-8.02,8.02v54.16c0,8.2.95,13.33,2.86,15.38,1.9,2.05,5.97,3.52,12.2,4.39v3.08h-48.45v-3.08Z"/><path class="cls-1" d="m1062.57,666.52h46.36v3.08c-3.66.08-6.37.41-8.13,1.01-3.37.97-5.05,2.88-5.05,5.73,0,1.05.18,2.12.55,3.2.37,1.09,1.02,2.71,1.98,4.89l25.43,54.98,20.93-55.42c.22-.6.57-1.95,1.04-4.05.48-2.1.71-3.52.71-4.27,0-1.95-.66-3.37-1.98-4.27s-3-1.42-5.05-1.57l-3.41-.23v-3.08h30.21v3.08c-3,.38-5.26,1.44-6.76,3.18-1.5,1.74-2.8,4.16-3.9,7.26l-34.61,91.63c-6.01,15.82-11.76,27.28-17.25,34.39-5.49,7.1-12.45,10.66-20.87,10.66-4.1,0-7.95-1.03-11.54-3.08-3.59-2.05-5.38-5.31-5.38-9.78,0-2.93,1.07-5.33,3.2-7.2,2.13-1.87,4.83-2.8,8.08-2.8,1.88,0,4.68.7,8.41,2.09,3.73,1.39,6.38,2.09,7.98,2.09,4.05,0,8.32-4.97,12.8-14.92,4.49-9.95,6.73-16.51,6.73-19.7,0-.65-.1-1.45-.31-2.39-.21-.94-.46-1.78-.73-2.5l-34.62-74.87c-2.49-5.42-4.67-8.99-6.54-10.71-1.87-1.72-4.63-2.84-8.29-3.35v-3.08Z"/></svg>