<?xml version="1.0" encoding="UTF-8"?><svg id="Layer_10" xmlns="http://www.w3.org/2000/svg" viewBox="0 0 1371.35 924.83"><defs><style>.cls-1{stroke-width:0px;}</style></defs><rect class="cls-1" x="276.74" y="216" width="172.83" height="42.29"/><rect class="cls-1" x="238.63" y="60.92" width="46.99" height="355.07"/><rect class="cls-1" x="440.7" y="60.92" width="46.99" height="355.07"/><rect class="cls-1" x="897.11" y="216" width="172.83" height="42.29"/><rect class="cls-1" x="858.99" y="60.92" width="46.99" height="355.07"/><rect class="cls-1" x="1061.06" y="60.92" width="46.99" height="355.07"/><path class="cls-1" d="m673.34,380.42c-69.41,0-94.64-63.62-94.64-145.12s25.24-138.81,94.64-138.81,94.64,57.31,94.64,138.81-24.71,145.12-94.64,145.12Zm0,39.96c94.12,0,141.44-77.82,141.44-185.08s-47.32-178.77-141.44-178.77-141.44,71.51-141.44,178.77,47.32,185.08,141.44,185.08Z"/><rect class="cls-1" x="273.33" y="669.13" width="172.83" height="42.29"/><rect class="cls-1" x="235.21" y="514.05" width="46.99" height="355.07"/><rect class="cls-1" x="437.28" y="514.05" width="47.29" height="355.07"/><rect class="cls-1" x="893.69" y="669.13" width="172.83" height="42.29"/><rect class="cls-1" x="855.57" y="514.05" width="46.99" height="355.07"/><rect class="cls-1" x="1057.65" y="514.05" width="46.99" height="355.07"/><path class="cls-1" d="m669.92,833.55c-69.41,0-94.34-63.62-94.34-145.12s24.94-133.51,94.34-133.51,94.34,52.01,94.34,133.51-24.41,145.12-94.34,145.12Zm0,39.96c94.12,0,141.14-77.82,141.14-185.08s-47.02-173.47-141.14-173.47-141.14,66.21-141.14,173.47,47.02,185.08,141.14,185.08Z"/></svg>