<?xml version="1.0" encoding="UTF-8"?><svg id="Layer_10" xmlns="http://www.w3.org/2000/svg" viewBox="0 0 1371.35 924.83"><defs><style>.cls-1{stroke-width:2px;}.cls-1,.cls-2{fill:none;stroke:#969696;stroke-miterlimit:10;}.cls-3,.cls-4{stroke-width:0px;}.cls-4{fill:#969696;}</style></defs><rect class="cls-3" x="237.05" y="407.4" width="304.93" height="74.62"/><rect class="cls-3" x="169.8" y="133.8" width="82.91" height="626.44"/><rect class="cls-3" x="526.31" y="133.8" width="82.91" height="626.44"/><path class="cls-3" d="m974.89,699.26c-123.49,0-168.4-113.2-168.4-258.21s44.91-246.98,168.4-246.98,168.4,101.97,168.4,246.98-43.97,258.21-168.4,258.21Zm0,71.1c167.46,0,251.66-138.46,251.66-329.31s-84.2-318.08-251.66-318.08-251.66,127.23-251.66,318.08,84.2,329.31,251.66,329.31Z"/><line class="cls-1" x1="1262.49" y1="113.63" x2="1262.49" y2="141.87"/><path class="cls-4" d="m1254.97,114.01c0-4.15,3.37-7.52,7.52-7.52s7.52,3.37,7.52,7.52-3.37,7.52-7.52,7.52-7.52-3.37-7.52-7.52Z"/><path class="cls-4" d="m1254.97,141.49c0,4.15,3.37,7.52,7.52,7.52s7.52-3.37,7.52-7.52-3.37-7.52-7.52-7.52-7.52,3.37-7.52,7.52Z"/><line class="cls-1" x1="1262.49" y1="751.8" x2="1262.49" y2="780.04"/><path class="cls-4" d="m1254.97,752.18c0-4.15,3.37-7.52,7.52-7.52s7.52,3.37,7.52,7.52-3.37,7.52-7.52,7.52-7.52-3.37-7.52-7.52Z"/><path class="cls-4" d="m1254.97,779.66c0,4.15,3.37,7.52,7.52,7.52s7.52-3.37,7.52-7.52-3.37-7.52-7.52-7.52-7.52,3.37-7.52,7.52Z"/><path class="cls-3" d="m1287.22,133.05c-1.17-.62-2.1-1.56-2.78-2.82-.68-1.26-1.02-2.77-1.02-4.53,0-2.12.42-4.03,1.26-5.75.84-1.71,1.78-3.1,2.82-4.17,1.04-1.07,1.99-1.88,2.85-2.42h6.18c-1.46,1.1-2.78,2.25-3.96,3.44-1.18,1.19-2.13,2.41-2.86,3.65-.73,1.24-1.12,2.46-1.16,3.66l-.24-.03c.04-.64.25-1.31.65-2.02.39-.71.92-1.3,1.6-1.77.68-.47,1.43-.71,2.25-.71,1.74,0,3.19.51,4.35,1.53,1.16,1.02,1.74,2.7,1.74,5.04,0,1.64-.34,3.05-1.02,4.23-.68,1.18-1.6,2.08-2.77,2.69-1.17.61-2.47.92-3.88.92-1.5,0-2.83-.31-4-.93Zm5.37-2.91c.35-.3.6-.74.75-1.32.15-.58.23-1.31.23-2.19,0-1.26-.17-2.18-.5-2.76-.33-.58-.94-.87-1.81-.87s-1.47.3-1.83.9c-.36.6-.54,1.51-.54,2.73,0,.86.08,1.58.24,2.16s.41,1.02.75,1.33.8.46,1.38.46c.54,0,.98-.15,1.33-.45Z"/><path class="cls-3" d="m1287.22,778.23c-1.17-.62-2.1-1.56-2.78-2.82-.68-1.26-1.02-2.77-1.02-4.53,0-2.12.42-4.04,1.26-5.75s1.78-3.1,2.82-4.17c1.04-1.07,1.99-1.88,2.85-2.42h6.18c-1.46,1.1-2.78,2.25-3.96,3.43-1.18,1.19-2.13,2.41-2.86,3.65-.73,1.24-1.12,2.46-1.16,3.66l-.24-.03c.04-.64.25-1.31.65-2.03.39-.71.92-1.3,1.6-1.77.68-.47,1.43-.71,2.25-.71,1.74,0,3.19.51,4.35,1.53,1.16,1.02,1.74,2.7,1.74,5.04,0,1.64-.34,3.05-1.02,4.23-.68,1.18-1.6,2.08-2.77,2.69s-2.47.92-3.88.92c-1.5,0-2.83-.31-4-.93Zm5.37-2.91c.35-.3.6-.74.75-1.32.15-.58.23-1.31.23-2.19,0-1.26-.17-2.18-.5-2.76s-.94-.87-1.81-.87-1.47.3-1.83.9c-.36.6-.54,1.51-.54,2.73,0,.86.08,1.58.24,2.16s.41,1.03.75,1.33c.34.31.8.46,1.38.46.54,0,.98-.15,1.33-.45Z"/><line class="cls-2" x1="73.95" y1="133.8" x2="1262.49" y2="133.8"/><line class="cls-2" x1="73.95" y1="121.17" x2="1262.49" y2="121.17"/><line class="cls-2" x1="73.95" y1="772.5" x2="1262.49" y2="772.5"/><line class="cls-2" x1="73.95" y1="760.23" x2="1262.49" y2="760.23"/></svg>