<?xml version="1.0" encoding="UTF-8"?><svg id="Layer_7" xmlns="http://www.w3.org/2000/svg" viewBox="0 0 635.79 616.1"><defs><style>.cls-1{stroke-width:0px;}</style></defs><path class="cls-1" d="m170.51,128.69c0,6.77-2.07,12.58-6.21,17.44-4.14,4.86-9.85,8.11-17.15,9.75-5.77,1.31-11.21,2.07-16.33,2.29-5.12.22-20.14.33-45.07.33-3.49,0-5.55-.06-6.21-.16-.65-.11-.98-.49-.98-1.15,0-.98,1.77-1.47,5.31-1.47s5.74-.52,6.61-1.55c.87-1.04,1.31-3.57,1.31-7.61V53.01c0-3.16-2.54-4.8-7.6-4.91-3.86-.1-5.79-.56-5.79-1.39,0-.92,1.2-1.39,3.59-1.39h45.89c25.15,0,37.72,8.63,37.72,25.88,0,14.3-9.36,23.15-28.09,26.53l-.33.66c11,2.29,18.62,5.19,22.86,8.68,6.97,5.79,10.45,12.99,10.45,21.62Zm-26.13-.73c0-15.35-4.36-24.28-13.08-26.78-3.44-.98-8.4-1.47-14.85-1.47v9.47c0,2.72-.11,6.59-.33,11.6-.11,2.51-.16,7.19-.16,14.04,0,11.76.33,18.02.98,18.78.87,1.2,3.32,1.8,7.35,1.8,13.39,0,20.09-9.15,20.09-27.44Zm-3.1-55.85c0-15.79-4.8-23.68-14.41-23.68-3.42,0-5.71.16-6.88.49-2.35.76-3.52,2.45-3.52,5.06v43.11c9.5,0,16.01-1.69,19.54-5.06,3.52-3.37,5.28-10.02,5.28-19.92Z"/><path class="cls-1" d="m256.25,123.55c0,11.65-4.57,21.07-13.72,28.25-7.19,5.66-15.08,8.49-23.68,8.49-10.23,0-19.08-3.67-26.54-11.02-7.46-7.35-11.19-16.03-11.19-26.05s3.73-19.35,11.19-26.7c7.46-7.35,16.47-11.02,27.03-11.02s18.81,3.73,26.05,11.19c7.24,7.46,10.86,16.41,10.86,26.86Zm-24.66.16c0-13.5-.92-22.75-2.76-27.76-2.06-5.55-5.36-8.33-9.9-8.33-4.22,0-7.52,2.91-9.9,8.74-2.38,5.83-3.57,13.86-3.57,24.09,0,14.26,1.41,24.39,4.22,30.38,2.27,4.79,5.46,7.19,9.57,7.19,5.09,0,8.44-3.05,10.06-9.15,1.51-5.77,2.27-14.15,2.27-25.15Z"/><path class="cls-1" d="m345.09,155.07c0,.76-1.09,1.14-3.27,1.14h-7.35c-5.34-.11-10.94,1.15-16.82,3.77-.65.21-1.04.31-1.14.31-.98,0-1.53-.98-1.63-2.94,0-.98-.16-2.34-.49-4.08-4.36,4.68-10.13,7.02-17.31,7.02-9.58,0-17.47-3.54-23.68-10.62-6.21-7.08-9.31-16.06-9.31-26.95s3.16-20.06,9.47-26.86c6.31-6.8,14.64-10.21,24.99-10.21,6.75,0,12.25,2.51,16.49,7.51v-22.86c0-9.8-.44-15.6-1.31-17.39-.87-1.8-3.76-2.64-8.66-2.53-2.83,0-4.25-.38-4.25-1.14s.66-1.14,1.98-1.14c10,0,19.56-1.47,28.68-4.41,1.32-.43,2.25-.65,2.8-.65,1.21,0,1.81,1.31,1.81,3.92v101.74c0,1.85.27,3.1.82,3.76.76.98,2.67,1.42,5.72,1.31,1.63-.11,2.45.33,2.45,1.31Zm-30.05-14.7v-35.6c0-4.9-.82-8.55-2.46-10.94-2.08-3.05-4.98-4.57-8.71-4.57-10.52,0-15.77,11.6-15.77,34.79,0,10.34,1.34,18.35,4.02,24.01,2.68,5.66,6.44,8.49,11.26,8.49,2.85,0,5.5-1.28,7.97-3.84,2.46-2.56,3.7-6.67,3.7-12.33Z"/><path class="cls-1" d="m424.62,123.55c0,11.65-4.57,21.07-13.72,28.25-7.19,5.66-15.08,8.49-23.68,8.49-10.23,0-19.08-3.67-26.54-11.02-7.46-7.35-11.19-16.03-11.19-26.05s3.73-19.35,11.19-26.7c7.46-7.35,16.47-11.02,27.03-11.02s18.81,3.73,26.05,11.19c7.24,7.46,10.86,16.41,10.86,26.86Zm-24.66.16c0-13.5-.92-22.75-2.76-27.76-2.06-5.55-5.36-8.33-9.9-8.33-4.22,0-7.52,2.91-9.9,8.74-2.38,5.83-3.57,13.86-3.57,24.09,0,14.26,1.41,24.39,4.22,30.38,2.27,4.79,5.46,7.19,9.57,7.19,5.09,0,8.44-3.05,10.06-9.15,1.51-5.77,2.27-14.15,2.27-25.15Z"/><path class="cls-1" d="m517.38,157.19c0,.87-1.36,1.31-4.08,1.31h-34.95c-1.53,0-2.29-.41-2.29-1.22,0-.71.64-1.07,1.92-1.07h1.28c2.78,0,4.41-.35,4.89-1.07.48-.71.72-3.15.72-7.31v-31.68c0-11.71-.75-18.71-2.25-21.01-1.29-1.97-3.59-2.96-6.91-2.96s-6.06,1.03-8.2,3.1c-2.14,2.06-3.21,4.67-3.21,7.82v49.36c.22,1.3.68,2.15,1.39,2.53.71.38,2.48.62,5.31.73.87,0,1.31.33,1.31.98s-.38,1.03-1.14,1.14c-.76.11-3.49.16-8.17.16s-8.55.06-11.6.16c-5.99.22-12.08.33-18.29.33-1.31,0-1.96-.38-1.96-1.14,0-.87,1.66-1.3,4.98-1.3s5.25-.65,5.8-1.95l.49-2.28v-37.46c0-10.53-.11-16.02-.33-16.45-.33-1.63-1.8-2.44-4.41-2.44h-5.55c-1.74,0-2.61-.35-2.61-1.07s.65-1.12,1.95-1.22c12.14-.54,21.83-3.1,29.09-7.68.87-.43,1.46-.65,1.79-.65.87,0,1.3.87,1.3,2.61v9.31c5.77-7.51,13.17-11.27,22.21-11.27s15.46,3.27,18.29,9.8c1.2,2.72,1.93,5.77,2.2,9.15.27,3.38.41,10.34.41,20.9v23.68c0,3.38.27,5.36.82,5.96.54.6,2.31.9,5.31.9s4.49.44,4.49,1.31Z"/><path class="cls-1" d="m564.57,157.19c0,.76-.49,1.14-1.46,1.14h-41.17c-1.3,0-1.95-.35-1.95-1.05,0-.52,1.25-.83,3.76-.91,3.7-.11,5.88-.52,6.53-1.23s.98-2.87.98-6.49v-47.11c0-4.16-.35-6.65-1.06-7.47-.71-.82-2.86-1.23-6.45-1.23-2.29,0-3.62-.05-4-.16-.38-.11-.57-.49-.57-1.14,0-.76.82-1.14,2.45-1.14,11.98-.11,22.21-1.96,30.7-5.55.22,1.31.49,4.9.82,10.78v51.44c0,4.47.41,7.08,1.23,7.84.82.76,3.62,1.14,8.41,1.14,1.2,0,1.8.38,1.8,1.14Zm-11.43-103.54c0,3.05-1.06,5.66-3.17,7.84-2.12,2.18-4.68,3.27-7.68,3.27s-5.74-1.03-7.85-3.1c-2.12-2.07-3.17-4.68-3.17-7.84s1.06-5.55,3.17-7.51c2.12-1.96,4.84-2.94,8.19-2.94,3.01,0,5.51.98,7.52,2.94,2.01,1.96,3.01,4.41,3.01,7.35Z"/><path class="cls-1" d="m138.59,232.17c-4.86.52-6.42,1.56-6.76,4.34-.17,4.34-.52,10.06-.52,28.97v23.07c0,12.83-.17,32.95-.17,47,0,7.28-1.73,10.93-3.47,14.22-5.55,10.23-18.73,18.56-27.92,24.11-2.43,1.39-7.81,3.3-11.27,3.3-4.51,0-9.54-1.91-12.14-4.16-1.56-1.39-1.91-2.77-1.91-4.51,0-1.39.17-2.95,1.21-3.82,2.6-2.78,4.34-4.16,6.42-5.55,1.56-1.21,3.3-1.39,4.68-.35,4.16,2.43,7.98,5.03,12.83,5.03,2.77,0,5.55-.87,7.63-2.78,2.78-2.43,4.51-5.9,4.51-15.26.17-11.79.17-24.11.17-39.72v-32.61c0-16.48-.17-25.15-.52-29.66-.87-10.58-1.39-10.93-14.4-11.97,0-1.21.87-3.82,1.21-4.86.35-1.04,1.39-1.39,2.25-1.39,3.47,0,12.49.35,19.25.35,7.28,0,18.39-.69,22.2-.69,1.04,0,1.39,0,1.56.69l.69,5.2-5.55,1.04Z"/><path class="cls-1" d="m201.03,274.66c3.3,3.12,6.07,7.28,7.98,13.36,2.6-.52,4.34-.87,4.86-.17.69.52.69,1.04.52,1.73-.52,1.73-2.08,5.03-4.16,5.9-7.98,2.43-32.78,6.94-39.55,8.85-.69.17-1.21.69-1.21,3.12.17,11.97,8.5,19.95,19.43,19.95,8.33,0,14.92-3.12,20.64-8.15,1.39-1.21,3.47-1.21,3.47-.17-.35,5.03-.87,6.24-2.08,7.28-8.67,6.94-16.3,10.41-22.2,12.31-2.25.69-5.03.87-7.46.87-13.7,0-21.33-7.46-23.94-10.23-2.95-3.64-7.46-11.27-7.46-21.51,0-15.26,8.5-26.71,19.6-33.82,5.03-3.12,11.27-5.38,15.44-5.38,5.72,0,12.49,2.6,16.13,6.07Zm-20.81,1.21c-.87,0-2.43.35-4.16,1.56-3.82,2.77-7.11,12.66-6.76,20.81,8.85-1.73,15.26-3.12,20.12-4.16,1.21-.35,2.08-1.39,2.08-3.3,0-7.28-5.38-14.92-11.27-14.92Z"/><path class="cls-1" d="m221.5,333.63c5.55-2.08,7.28-2.6,8.33-7.98.35-4.16.69-14.74.69-21.51,0-6.42-.17-12.14-.69-15.78-.17-1.91-.69-2.77-7.81-5.03-1.04-.69-1.56-1.21-1.04-3.99,0-.35.52-.87,2.6-1.73,9.19-4.16,17.34-8.33,18.73-9.02.87-.52,1.39-.69,2.77-.69,1.04,0,1.73.35,1.73,1.73.17,2.77.35,5.38.35,7.46,0,1.56.35,2.25,1.56,1.73,4.86-2.95,8.85-4.68,13.18-6.94,3.3-1.73,6.24-2.6,10.06-2.6,5.38,0,8.85,1.39,12.14,3.99,4.86,3.64,7.11,9.89,8.15,17.69.35,3.47.35,9.54.35,14.92v23.59c0,1.21.17,1.91.69,1.91,1.56,0,6.76-.52,8.67-.69.52,0,.87.35.87,1.56,0,1.39-.52,4.34-.87,5.03-.35.87-.52.87-1.39.87-16.3,0-25.15.69-30.87.69-1.21,0-1.91,0-2.25-1.73l-.69-2.78c5.2-1.91,6.59-3.3,7.28-8.5.87-6.42,1.04-13.36,1.04-24.11,0-9.37-.69-14.22-3.82-17.34-2.08-2.43-5.55-3.64-9.54-3.64s-9.89,1.91-12.31,2.95c-1.21.69-1.39,1.73-1.56,5.38-.17,6.24-.17,27.4-.17,38.51,0,2.95.17,3.12,8.85,5.2,1.04.17,1.21.52.69,1.73l-1.04,3.47h-17.52c-8.5,0-13.7.87-16.65.87-.69,0-1.04-.52-.87-1.56l.35-3.64Z"/><path class="cls-1" d="m356.61,334.5c-5.2,3.3-13.7,5.03-20.29,5.03-5.2,0-11.79-.87-14.57-1.73-3.12-.69-4.16-.87-6.24.69-.17,0-1.04,0-1.56-.35-1.04-.52-1.21-1.04-1.04-2.08.69-6.94,1.04-12.14-.17-19.77,0-.87-.17-1.56.35-1.91.69-.35,2.25-1.21,4.51-1.73,2.6,5.03,4.86,9.02,8.85,14.05,4.16,5.38,9.19,7.11,12.49,7.11,3.64,0,9.54-3.64,9.54-9.71,0-7.63-10.58-11.79-15.78-14.74-4.34-2.43-17-8.33-17.17-20.12,0-5.9,2.25-10.75,7.63-14.92,5.03-3.82,11.79-6.07,17-6.07,5.9,0,9.89.69,12.66.69,1.56,0,2.6,0,3.3-.35.35-.35.69-.35,1.39.17.69.35.69.69.69,1.39.17,5.03,1.21,10.75,3.3,17.69.17,1.04-1.21,2.25-2.08,2.25-2.6,0-4.16-.69-5.55-2.78-2.25-3.82-7.11-13.36-15.26-13.36-3.47,0-7.46,3.3-7.46,9.19s7.11,9.71,13.01,12.83c6.07,2.95,21.33,9.54,21.33,23.59,0,6.59-2.77,11.27-8.85,14.92Z"/><path class="cls-1" d="m449.75,303.63c0,17.69-11.79,26.71-15.09,28.79-6.76,3.99-16.3,7.28-23.42,7.28-7.63,0-20.99-3.82-27.75-12.83-4.51-6.07-7.11-15.09-7.11-22.37s2.6-15.61,7.29-21.16c3.3-3.82,7.11-6.94,12.31-9.71,6.24-3.3,15.09-5.72,19.25-5.72,15.44,0,34.52,11.62,34.52,35.73Zm-48.22-25.5c-3.12,2.95-5.38,10.58-5.38,21.51s3.64,20.99,7.63,25.84c4.86,5.55,9.37,7.11,13.53,7.11,2.78,0,5.38-.87,7.46-2.95,2.95-3.12,5.55-9.02,5.55-19.6,0-9.19-1.91-22.9-8.67-29.49-2.95-2.95-7.98-5.72-12.49-5.72-3.47,0-5.72,1.21-7.63,3.3Z"/><path class="cls-1" d="m460.16,333.63c5.55-2.08,7.28-2.6,8.33-7.98.35-4.16.69-14.74.69-21.51,0-6.42-.17-12.14-.69-15.78-.17-1.91-.69-2.77-7.81-5.03-1.04-.69-1.56-1.21-1.04-3.99,0-.35.52-.87,2.6-1.73,9.19-4.16,17.34-8.33,18.73-9.02.87-.52,1.39-.69,2.77-.69,1.04,0,1.73.35,1.73,1.73.17,2.77.35,5.38.35,7.46,0,1.56.35,2.25,1.56,1.73,4.86-2.95,8.85-4.68,13.18-6.94,3.3-1.73,6.24-2.6,10.06-2.6,5.38,0,8.85,1.39,12.14,3.99,4.86,3.64,7.11,9.89,8.15,17.69.35,3.47.35,9.54.35,14.92v23.59c0,1.21.17,1.91.69,1.91,1.56,0,6.76-.52,8.67-.69.52,0,.87.35.87,1.56,0,1.39-.52,4.34-.87,5.03-.35.87-.52.87-1.39.87-16.3,0-25.15.69-30.87.69-1.21,0-1.91,0-2.25-1.73l-.69-2.78c5.2-1.91,6.59-3.3,7.28-8.5.87-6.42,1.04-13.36,1.04-24.11,0-9.37-.69-14.22-3.82-17.34-2.08-2.43-5.55-3.64-9.54-3.64s-9.89,1.91-12.31,2.95c-1.21.69-1.39,1.73-1.56,5.38-.17,6.24-.17,27.4-.17,38.51,0,2.95.17,3.12,8.85,5.2,1.04.17,1.21.52.69,1.73l-1.04,3.47h-17.52c-8.5,0-13.7.87-16.65.87-.69,0-1.04-.52-.87-1.56l.35-3.64Z"/><path class="cls-1" d="m152.52,448.66h-43.96v30.31h42.4v17.89h-42.4v60.05h-19.04v-126.15h62.99v17.89Z"/><path class="cls-1" d="m187.82,477.34v45.67c0,13.18,5.2,19.77,15.61,19.77s15.61-6.59,15.61-19.77v-45.67h18.38v46.08c0,6.37-.79,11.88-2.37,16.5-1.53,4.14-4.17,7.87-7.93,11.19-6.21,5.39-14.11,8.09-23.69,8.09s-17.4-2.7-23.61-8.09c-3.81-3.32-6.51-7.05-8.09-11.19-1.53-3.7-2.29-9.21-2.29-16.5v-46.08h18.38Z"/><path class="cls-1" d="m279.57,494.5v62.42h-18.38v-62.42h-7.84v-17.16h7.84v-29.17h18.38v29.17h14.3v17.16h-14.3Z"/><path class="cls-1" d="m324.76,477.34v45.67c0,13.18,5.2,19.77,15.61,19.77s15.61-6.59,15.61-19.77v-45.67h18.38v46.08c0,6.37-.79,11.88-2.37,16.5-1.53,4.14-4.17,7.87-7.93,11.19-6.21,5.39-14.11,8.09-23.69,8.09s-17.4-2.7-23.61-8.09c-3.81-3.32-6.51-7.05-8.09-11.19-1.53-3.7-2.29-9.21-2.29-16.5v-46.08h18.38Z"/><path class="cls-1" d="m397.56,477.34h18.38v7.11c3.38-3.54,6.37-5.96,8.99-7.27,2.67-1.36,5.83-2.04,9.48-2.04,4.85,0,9.91,1.58,15.2,4.74l-8.42,16.83c-3.49-2.5-6.89-3.76-10.21-3.76-10.02,0-15.03,7.57-15.03,22.71v41.26h-18.38v-79.58Z"/><path class="cls-1" d="m517.66,477.34h18.46v79.58h-18.46v-8.33c-7.57,7.08-15.72,10.62-24.43,10.62-11,0-20.1-3.98-27.29-11.93-7.14-8.12-10.7-18.25-10.7-30.39s3.57-21.87,10.7-29.82c7.13-7.95,16.07-11.93,26.8-11.93,9.26,0,17.57,3.81,24.92,11.44v-9.23Zm-43.63,39.54c0,7.63,2.04,13.84,6.13,18.63,4.19,4.85,9.48,7.27,15.85,7.27,6.81,0,12.31-2.34,16.5-7.03,4.19-4.85,6.29-11,6.29-18.47s-2.1-13.62-6.29-18.46c-4.19-4.74-9.64-7.11-16.34-7.11-6.32,0-11.6,2.4-15.85,7.19-4.19,4.85-6.29,10.84-6.29,17.97Z"/></svg>