<?xml version="1.0" encoding="UTF-8"?><svg id="Layer_1" xmlns="http://www.w3.org/2000/svg" viewBox="0 0 859.16 450"><defs><style>.cls-1{stroke-width:0px;}</style></defs><polygon class="cls-1" points="101.09 64.38 101.09 108.91 175.57 108.91 175.57 64.38 153.72 64.38 153.72 45.24 122.93 45.24 122.93 64.38 101.09 64.38"/><polygon class="cls-1" points="268.36 64.38 268.36 108.91 342.85 108.91 342.85 64.38 321 64.38 321 45.24 290.21 45.24 290.21 64.38 268.36 64.38"/><polygon class="cls-1" points="175.57 178.82 175.57 126.8 101.09 126.8 101.09 178.82 122.93 178.82 122.93 197.34 153.72 197.34 153.72 178.82 175.57 178.82"/><polygon class="cls-1" points="247.14 178.82 247.14 64.38 228.62 64.38 228.62 45.24 215.31 45.24 215.31 64.38 196.79 64.38 196.79 178.82 215.31 178.82 215.31 197.34 228.62 197.34 228.62 178.82 247.14 178.82"/><polygon class="cls-1" points="342.85 178.82 342.85 126.8 268.36 126.8 268.36 178.82 290.21 178.82 290.21 197.34 321 197.34 321 178.82 342.85 178.82"/><polygon class="cls-1" points="691.64 45.24 691.64 54.12 672.26 54.12 671.81 114.48 754.67 114.48 754.22 54.12 734.85 54.12 734.85 45.24 691.64 45.24"/><polygon class="cls-1" points="515.01 45.24 515.01 54.12 495.63 54.12 495.19 114.48 578.04 114.48 577.6 54.12 558.22 54.12 558.22 45.24 515.01 45.24"/><polygon class="cls-1" points="648.65 189.09 649.09 121.16 648.65 54.12 630.83 54.12 630.83 45.24 618.8 45.24 618.8 54.12 600.98 54.12 600.32 121.16 600.98 189.09 618.8 189.09 618.8 197.33 630.83 197.33 630.83 189.09 648.65 189.09"/><polygon class="cls-1" points="577.6 189.09 578.04 123.39 495.19 123.39 495.63 189.09 515.01 189.09 515.01 197.33 558.22 197.33 558.22 189.09 577.6 189.09"/><polygon class="cls-1" points="671.81 123.39 672.26 189.09 691.64 189.09 691.64 197.33 734.85 197.33 734.85 189.09 754.22 189.09 754.67 123.39 671.81 123.39"/><path class="cls-1" d="m127.38,250.73c.68,1.58-.14,3.8-2.63,3.8-18.98-.23-26.16,3.7-26.16,19.44v46.99h67.36v-46.99c0-15.74-6.94-19.44-25.93-19.44-2.49,0-3.31-2.23-2.63-3.8h-10.01Z"/><path class="cls-1" d="m137.37,399.74c-.65-1.57.18-3.77,2.65-3.77,16.2,0,25.93-3.7,25.93-19.44v-50.23h-67.36v50.23c0,15.74,10.19,19.44,26.16,19.44,2.47,0,3.3,2.2,2.65,3.77h9.98Z"/><path class="cls-1" d="m306.77,250.73c.68,1.58-.14,3.8-2.63,3.8-18.98-.23-26.16,3.7-26.16,19.44v46.99h67.36v-46.99c0-15.74-6.94-19.44-25.93-19.44-2.49,0-3.31-2.23-2.63-3.8h-10.01Z"/><path class="cls-1" d="m316.77,399.74c-.65-1.57.18-3.77,2.65-3.77,16.2,0,25.93-3.7,25.93-19.44v-50.23h-67.36v50.23c0,15.74,10.19,19.44,26.16,19.44,2.47,0,3.3,2.2,2.65,3.77h9.98Z"/><path class="cls-1" d="m223.25,399.74c-.65-1.57.18-3.77,2.65-3.77,13.89,0,22.68-3.7,22.68-19.44v-102.54c0-15.74-8.8-19.91-22.68-19.44-2.49,0-3.31-2.23-2.63-3.8h-2.61c.68,1.58-.14,3.8-2.63,3.8-13.89,0-22.68,3.7-22.68,19.44v102.54c0,15.74,8.8,19.44,22.68,19.44,2.47,0,3.3,2.2,2.65,3.77h2.57Z"/><path class="cls-1" d="m523.37,251.9c0,4.11-1.3,8.43-6.48,9.51l-22.7,4.54v37.61h80.19v-37.61l-22.7-4.54c-5.19-1.08-6.48-5.4-6.48-9.51,0-4.32,2.16-8.21,6.48-8.21h-35.02c4.54,0,6.7,3.89,6.7,8.21Z"/><path class="cls-1" d="m710.33,251.9c0,4.11-1.3,8.43-6.48,9.51l-22.7,4.54v37.61h80.19v-37.61l-22.7-4.54c-5.19-1.08-6.48-5.4-6.48-9.51,0-4.32,2.16-8.21,6.48-8.21h-35.02c4.54,0,6.7,3.89,6.7,8.21Z"/><path class="cls-1" d="m732.16,388.73c0-3.89,1.3-8.43,6.48-9.51l22.7-4.54v-51.01h-80.19v51.01l22.7,4.54c4.97,1.08,6.48,5.62,6.48,9.51,0,4.54-2.16,8.43-6.7,8.43h35.02c-4.32,0-6.48-3.89-6.48-8.43Z"/><path class="cls-1" d="m545.2,388.73c0-3.89,1.3-8.43,6.48-9.51l22.7-4.54v-51.01h-80.19v51.01l22.7,4.54c4.97,1.08,6.48,5.62,6.48,9.51,0,4.54-2.16,8.43-6.7,8.43h35.02c-4.32,0-6.48-3.89-6.48-8.43Z"/><path class="cls-1" d="m634.46,388.51c0-4.32,1.08-7.78,6.27-9.29l17.94-5.19v-107.21l-18.16-5.19c-4.97-1.51-6.05-4.97-6.05-9.51s1.95-8.43,6.48-8.43h-26.36c4.54,0,6.48,3.67,6.48,8.43s-1.08,8-6.05,9.51l-18.16,5.19v107.21l18.16,5.19c4.97,1.51,6.05,4.76,6.05,9.29,0,4.97-1.94,8.65-6.48,8.65h26.36c-4.54,0-6.48-3.67-6.48-8.65Z"/></svg>