<?xml version="1.0" encoding="utf-8"?>
<!-- Generator: Adobe Illustrator 28.0.0, SVG Export Plug-In . SVG Version: 6.00 Build 0)  -->
<svg version="1.1" xmlns="http://www.w3.org/2000/svg" xmlns:xlink="http://www.w3.org/1999/xlink" x="0px" y="0px"
	 viewBox="0 0 700 700" style="enable-background:new 0 0 700 700;" xml:space="preserve">
<style type="text/css">
	.st0{display:none;}
	.st1{display:inline;}
	.st2{fill:none;stroke:#808285;stroke-width:2;stroke-miterlimit:10;}
	.st3{fill:none;stroke:#808285;stroke-width:2;stroke-miterlimit:10;stroke-dasharray:12.0418,12.0418;}
	.st4{display:none;fill:none;stroke:#808285;stroke-width:2;stroke-miterlimit:10;stroke-dasharray:12;}
</style>
<g id="Layer_2">
	<g>
		<path d="M529.4,117.4c22.1-22.7,24.7-24.7,28.5-24.7c5.8,0,49.3,33.1,49.3,44.1v1.3c0,5.8-3.9,9.7-27.2,20.8v135
			c0,227.7,3.2,293.9,3.2,315.3c0,10.4-16.2,18.2-31.8,18.2c-9.1,0-11-2.6-11-11.7v-38.9H146.6v39.6c0,9.1-16.2,17.5-31.8,17.5
			c-9.1,0-11-2.6-11-11c0-19.5,3.2-79.8,3.2-303c0-164.8-0.6-184.9-2.6-228.4c18.2,7.8,34.4,16.2,51.9,26H529.4z M146.6,138.2v188.2
			h173.9V138.2H146.6z M146.6,556h173.9V347.1H146.6V556z M360.1,138.2v188.2h180.4V138.2H360.1z M540.4,556V347.1H360.1V556H540.4z
			"/>
	</g>
</g>
<g id="Layer_1">
	<g class="st0">
		<g class="st1">
			<polyline class="st2" points="651,645 651,651 645,651 			"/>
			<line class="st3" x1="633" y1="651" x2="61" y2="651"/>
			<polyline class="st2" points="55,651 49,651 49,645 			"/>
			<line class="st3" x1="49" y1="633" x2="49" y2="61"/>
			<polyline class="st2" points="49,55 49,49 55,49 			"/>
			<line class="st3" x1="67" y1="49" x2="639" y2="49"/>
			<polyline class="st2" points="645,49 651,49 651,55 			"/>
			<line class="st3" x1="651" y1="67" x2="651" y2="639"/>
		</g>
	</g>
	<line class="st4" x1="49" y1="350" x2="651" y2="350"/>
	<line class="st4" x1="350" y1="49" x2="350" y2="651"/>
	<circle class="st0" cx="339.6" cy="350.8" r="19.1"/>
	<circle class="st0" cx="315.6" cy="320" r="19.1"/>
</g>
<g id="Layer_3" class="st0">
	<g class="st1">
		<path d="M146.6,138.2v188.2h173.9V138.2H146.6z M146.6,556h173.9V347.1H146.6V556z M360.1,138.2v188.2h180.4V138.2H360.1z
			 M540.4,556V347.1H360.1V556H540.4z"/>
	</g>
</g>
</svg>
