<?xml version="1.0" encoding="UTF-8"?><svg xmlns="http://www.w3.org/2000/svg" viewBox="0 0 700 700"><defs><style>.cls-1{stroke-dasharray:0 12;}.cls-1,.cls-2,.cls-3{fill:none;stroke:#808285;stroke-miterlimit:10;stroke-width:2px;}.cls-4{fill:#231f20;stroke-width:0px;}.cls-3{stroke-dasharray:0 0 12.04 12.04;}</style></defs><g id="Layer_1"><polyline class="cls-2" points="651.02 645.02 651.02 651.02 645.02 651.02"/><line class="cls-3" x1="632.98" y1="651.02" x2="61" y2="651.02"/><polyline class="cls-2" points="54.98 651.02 48.98 651.02 48.98 645.02"/><line class="cls-3" x1="48.98" y1="632.98" x2="48.98" y2="61"/><polyline class="cls-2" points="48.98 54.98 48.98 48.98 54.98 48.98"/><line class="cls-3" x1="67.02" y1="48.98" x2="639" y2="48.98"/><polyline class="cls-2" points="645.02 48.98 651.02 48.98 651.02 54.98"/><line class="cls-3" x1="651.02" y1="67.02" x2="651.02" y2="639"/><line class="cls-1" x1="48.98" y1="350" x2="651.02" y2="350"/><line class="cls-1" x1="350" y1="48.98" x2="350" y2="651.02"/></g><g id="Layer_3"><path class="cls-4" d="m146.62,138.17v188.15h173.88v-188.15h-173.88Zm0,417.83h173.88v-208.92h-173.88v208.92Zm213.46-417.83v188.15h180.37v-188.15h-180.37Zm180.37,417.83v-208.92h-180.37v208.92h180.37Z"/></g></svg>