<?xml version="1.0" encoding="UTF-8"?><svg id="Layer_10" xmlns="http://www.w3.org/2000/svg" viewBox="0 0 1371.35 924.83"><defs><style>.cls-1{fill:none;stroke:#969696;stroke-miterlimit:10;stroke-width:2px;}.cls-2,.cls-3{stroke-width:0px;}.cls-3{fill:#969696;}</style></defs><path class="cls-2" d="m716.07,470.05l204.51-336.25h-78.3l-177.8,291.11,51.59,45.14Zm-265.31,290.19h78.3l175.03-288.34-50.67-45.14-202.67,333.49Zm384.15,0h85.67L536.43,133.8h-85.67l384.15,626.44Z"/><line class="cls-1" x1="685.72" y1="542.26" x2="685.72" y2="760.93"/><path class="cls-3" d="m678.2,542.64c0-4.15,3.37-7.52,7.52-7.52s7.52,3.37,7.52,7.52-3.37,7.52-7.52,7.52-7.52-3.37-7.52-7.52Z"/><path class="cls-3" d="m678.2,760.56c0,4.15,3.37,7.52,7.52,7.52s7.52-3.37,7.52-7.52-3.37-7.52-7.52-7.52-7.52,3.37-7.52,7.52Z"/><line class="cls-1" x1="689.22" y1="140.94" x2="689.22" y2="359.61"/><path class="cls-3" d="m681.7,141.32c0-4.15,3.37-7.52,7.52-7.52s7.52,3.37,7.52,7.52-3.37,7.52-7.52,7.52-7.52-3.37-7.52-7.52Z"/><path class="cls-3" d="m681.7,359.23c0,4.15,3.37,7.52,7.52,7.52s7.52-3.37,7.52-7.52-3.37-7.52-7.52-7.52-7.52,3.37-7.52,7.52Z"/><path class="cls-2" d="m703.52,233.54l2.37-1.74c1.36-1.08,2.44-2.05,3.24-2.91.8-.86,1.36-1.65,1.68-2.37.32-.72.48-1.45.48-2.19,0-.96-.27-1.67-.81-2.13-.54-.46-1.37-.69-2.49-.69-.56,0-1.12.08-1.7.24-.57.16-1.1.38-1.59.65s-.88.56-1.15.88v-4.68c.26-.28.7-.54,1.33-.79.63-.25,1.35-.46,2.17-.63.82-.17,1.61-.25,2.37-.25,1.64,0,3.03.27,4.17.81,1.14.54,1.99,1.27,2.55,2.21.56.93.84,2.02.84,3.25,0,1.52-.56,3.1-1.68,4.75s-2.75,3.24-4.89,4.75l-4.98,3.48-.06-2.67h11.55v4.08h-13.41v-4.05Z"/><path class="cls-2" d="m722.68,236.84c-1.17-.62-2.1-1.56-2.78-2.82-.68-1.26-1.02-2.77-1.02-4.53,0-2.12.42-4.03,1.26-5.75.84-1.71,1.78-3.1,2.82-4.17,1.04-1.07,1.99-1.88,2.85-2.42h6.18c-1.46,1.1-2.78,2.25-3.96,3.44-1.18,1.19-2.13,2.41-2.87,3.65-.73,1.24-1.12,2.46-1.15,3.66l-.24-.03c.04-.64.25-1.31.64-2.02.39-.71.92-1.3,1.61-1.77.68-.47,1.43-.71,2.25-.71,1.74,0,3.19.51,4.35,1.53s1.74,2.7,1.74,5.04c0,1.64-.34,3.05-1.02,4.23-.68,1.18-1.61,2.08-2.78,2.69-1.17.61-2.46.92-3.88.92-1.5,0-2.83-.31-4-.93Zm5.37-2.91c.35-.3.6-.74.75-1.32.15-.58.22-1.31.22-2.19,0-1.26-.17-2.18-.5-2.76-.33-.58-.94-.87-1.82-.87s-1.47.3-1.83.9c-.36.6-.54,1.51-.54,2.73,0,.86.08,1.58.24,2.16s.41,1.02.75,1.33.8.46,1.38.46c.54,0,.99-.15,1.34-.45Z"/><path class="cls-2" d="m741.65,235.2c1.26-1.17,2.33-2.43,3.2-3.77s1.23-2.5,1.09-3.48h.27c-.04.72-.21,1.35-.5,1.9-.29.55-.73,1-1.32,1.35-.59.35-1.33.52-2.23.52-1.02,0-2-.23-2.92-.69-.93-.46-1.69-1.2-2.28-2.23-.59-1.03-.88-2.36-.88-4s.3-3.05.92-4.23c.61-1.18,1.48-2.07,2.61-2.67,1.13-.6,2.5-.9,4.09-.9,1.76,0,3.23.3,4.41.9,1.18.6,2.05,1.49,2.61,2.66.56,1.17.84,2.58.84,4.25,0,2.1-.41,4.04-1.21,5.83-.81,1.79-1.76,3.29-2.85,4.5-1.09,1.21-2.05,2.02-2.87,2.44h-6.09c.82-.42,1.86-1.21,3.12-2.38Zm3.44-6.93c.35-.33.6-.78.76-1.35s.24-1.25.24-2.02c0-1.22-.18-2.14-.54-2.76-.36-.62-.97-.93-1.83-.93s-1.46.31-1.81.93c-.35.62-.53,1.54-.53,2.76,0,.8.08,1.48.24,2.04.16.56.41,1,.75,1.33.34.33.79.5,1.35.5s1.01-.17,1.37-.5Z"/><path class="cls-2" d="m628.28,669.93l2.37-1.74c1.36-1.08,2.44-2.05,3.24-2.91.8-.86,1.36-1.65,1.68-2.37.32-.72.48-1.45.48-2.19,0-.96-.27-1.67-.81-2.13-.54-.46-1.37-.69-2.49-.69-.56,0-1.12.08-1.7.24-.57.16-1.1.38-1.59.64-.49.27-.88.57-1.15.88v-4.68c.26-.28.7-.54,1.33-.79.63-.25,1.35-.46,2.17-.63.82-.17,1.61-.25,2.37-.25,1.64,0,3.03.27,4.17.81,1.14.54,1.99,1.28,2.55,2.21.56.93.84,2.02.84,3.25,0,1.52-.56,3.11-1.68,4.75-1.12,1.65-2.75,3.24-4.89,4.75l-4.98,3.48-.06-2.67h11.55v4.08h-13.41v-4.05Z"/><path class="cls-2" d="m646.13,668.51c.74-2.05,1.82-4.09,3.23-6.12,1.41-2.03,3.06-3.78,4.96-5.26l.57,1.38h-11.46v-4.92h13.86v4.92c-1,.98-2,2.38-3,4.19-1,1.81-1.83,3.73-2.47,5.77-.65,2.04-.98,3.88-.98,5.52h-5.82c0-1.6.37-3.42,1.11-5.48Z"/><path class="cls-2" d="m667.22,656.52l.81.15-6.06,10.2-.54-1.08h13.26v3.63h-15.84v-3.6l7.17-12.24h6.33v20.4h-5.13v-17.46Z"/></svg>