<?xml version="1.0" encoding="UTF-8"?><svg id="Layer_10" xmlns="http://www.w3.org/2000/svg" viewBox="0 0 1371.35 924.83"><defs><style>.cls-1{fill:none;stroke:#969696;stroke-miterlimit:10;stroke-width:2px;}.cls-2,.cls-3{stroke-width:0px;}.cls-3{fill:#969696;}</style></defs><path class="cls-2" d="m716.07,470.05l204.51-336.25h-78.3l-177.8,291.11,51.59,45.14Zm-265.31,290.19h78.3l175.03-288.34-50.67-45.14-202.67,333.49Zm384.15,0h85.67L536.43,133.8h-85.67l384.15,626.44Z"/><line class="cls-1" x1="877.13" y1="198.53" x2="806.87" y2="198.53"/><path class="cls-3" d="m876.76,191.02c4.15,0,7.52,3.37,7.52,7.52s-3.37,7.52-7.52,7.52-7.52-3.37-7.52-7.52,3.37-7.52,7.52-7.52Z"/><path class="cls-3" d="m807.25,191.02c-4.15,0-7.52,3.37-7.52,7.52s3.37,7.52,7.52,7.52,7.52-3.37,7.52-7.52-3.37-7.52-7.52-7.52Z"/><line class="cls-1" x1="570.1" y1="198.53" x2="499.84" y2="198.53"/><path class="cls-3" d="m569.72,191.02c4.15,0,7.52,3.37,7.52,7.52s-3.37,7.52-7.52,7.52-7.52-3.37-7.52-7.52,3.37-7.52,7.52-7.52Z"/><path class="cls-3" d="m500.22,191.02c-4.15,0-7.52,3.37-7.52,7.52s3.37,7.52,7.52,7.52,7.52-3.37,7.52-7.52-3.37-7.52-7.52-7.52Z"/><path class="cls-2" d="m907.07,202.2c-1.2-.47-2.17-1.16-2.9-2.06s-1.09-1.99-1.09-3.27.32-2.3.96-3.13c.64-.83,1.68-1.44,3.12-1.81-1.08-.1-1.96-.55-2.66-1.35-.69-.8-1.04-1.72-1.04-2.76,0-1.96.69-3.41,2.07-4.35s3.17-1.41,5.37-1.41,4.02.46,5.42,1.4c1.39.93,2.08,2.38,2.08,4.36,0,1.02-.34,1.94-1.04,2.75-.69.81-1.56,1.27-2.59,1.37,1.42.38,2.44.98,3.08,1.8.63.82.94,1.87.94,3.15s-.37,2.37-1.09,3.27c-.73.9-1.7,1.59-2.89,2.06-1.2.47-2.5.71-3.9.71s-2.64-.23-3.84-.71Zm5.22-2.96c.34-.22.6-.54.78-.96.18-.42.27-.91.27-1.47,0-1.02-.19-1.75-.57-2.21-.38-.45-1-.67-1.86-.67s-1.42.23-1.82.69c-.39.46-.58,1.19-.58,2.19,0,.56.09,1.05.27,1.47.18.42.45.74.81.96.36.22.8.33,1.32.33.58,0,1.04-.11,1.38-.33Zm.38-8.55c.39-.48.58-1.14.58-1.98s-.19-1.44-.55-1.85c-.37-.41-.97-.62-1.79-.62s-1.38.21-1.74.62c-.36.41-.54,1.02-.54,1.85s.18,1.5.56,1.98c.37.48.94.72,1.72.72s1.37-.24,1.75-.72Z"/><path class="cls-2" d="m922.97,202.52c-.98-.28-1.75-.62-2.31-1.02v-3.9c.42.38,1.04.69,1.86.93.82.24,1.64.36,2.46.36,1.12,0,2.01-.25,2.68-.75s1-1.29,1-2.37c0-1-.38-1.74-1.12-2.23s-1.81-.74-3.19-.74c-.52,0-1.07.04-1.65.1-.58.07-1.13.17-1.65.29l1.53-10.86h11.04v4.62h-7.23l-.51,3.57c.72-.14,1.36-.21,1.92-.21,1.16,0,2.22.2,3.19.6s1.75,1.01,2.36,1.83c.6.82.9,1.83.9,3.03,0,1.6-.38,2.94-1.12,4.02s-1.72,1.88-2.91,2.38c-1.19.51-2.48.77-3.88.77-1.26,0-2.38-.14-3.36-.42Z"/><path class="cls-2" d="m442.68,204.65c1.26-1.17,2.33-2.43,3.2-3.77s1.23-2.5,1.09-3.48h.27c-.04.72-.21,1.35-.5,1.9-.29.55-.73,1-1.32,1.35-.59.35-1.33.52-2.23.52-1.02,0-2-.23-2.92-.69-.93-.46-1.69-1.2-2.28-2.23-.59-1.03-.88-2.36-.88-4s.3-3.05.92-4.23c.61-1.18,1.48-2.07,2.61-2.67,1.13-.6,2.5-.9,4.09-.9,1.76,0,3.23.3,4.41.9,1.18.6,2.05,1.49,2.61,2.66.56,1.17.84,2.58.84,4.25,0,2.1-.41,4.04-1.21,5.83-.81,1.79-1.76,3.29-2.85,4.5-1.09,1.21-2.05,2.02-2.87,2.44h-6.09c.82-.42,1.86-1.21,3.12-2.38Zm3.44-6.93c.35-.33.6-.78.76-1.35s.24-1.25.24-2.02c0-1.22-.18-2.14-.54-2.76-.36-.62-.97-.93-1.83-.93s-1.46.31-1.81.93c-.35.62-.53,1.54-.53,2.76,0,.8.08,1.48.24,2.04.16.56.41,1,.75,1.33.34.33.79.5,1.35.5s1.01-.17,1.37-.5Z"/><path class="cls-2" d="m456.7,206.81c-.93-.27-1.67-.61-2.23-1.03v-3.84c.44.38,1.05.69,1.83.93.78.24,1.57.36,2.37.36,1.08,0,1.97-.23,2.66-.71.69-.47,1.04-1.19,1.04-2.15s-.38-1.65-1.14-2.07c-.76-.42-1.71-.63-2.85-.63-.42,0-.83.03-1.25.07-.41.05-.76.12-1.06.2v-2.61l5.4-4.26h-6.99v-4.44h13.11v4.5l-7.8,6.12-.66-1.14c.38-.1.79-.17,1.25-.23.45-.05.88-.08,1.28-.08,1.92,0,3.46.42,4.63,1.25,1.17.83,1.75,2.08,1.75,3.77,0,1.36-.38,2.52-1.14,3.5-.76.97-1.75,1.69-2.96,2.17-1.21.48-2.53.72-3.95.72-1.26,0-2.35-.14-3.29-.41Z"/></svg>